<svg xmlns="http://www.w3.org/2000/svg" xmlns:xlink="http://www.w3.org/1999/xlink" width="1024" zoomAndPan="magnify" viewBox="0 0 768 767.999994" height="1024" preserveAspectRatio="xMidYMid meet" version="1.0"><path fill="#9abdd8" d="M 667.503906 72.457031 C 667.503906 72.757812 667.503906 73.0625 667.503906 73.519531 C 667.503906 74.125 667.503906 74.582031 667.503906 75.191406 C 667.503906 75.644531 667.503906 75.949219 667.503906 76.40625 C 667.503906 77.011719 667.503906 77.46875 667.503906 78.074219 C 667.503906 78.53125 667.503906 78.988281 667.503906 79.441406 C 667.503906 79.898438 667.503906 80.507812 667.503906 80.960938 C 667.503906 81.417969 667.503906 82.023438 667.503906 82.480469 C 667.503906 83.089844 667.503906 83.542969 667.503906 84.152344 C 667.503906 84.757812 667.503906 85.214844 667.503906 85.824219 C 667.503906 86.429688 667.503906 86.886719 667.503906 87.492188 C 667.503906 88.101562 667.503906 88.707031 667.503906 89.316406 C 667.503906 89.925781 667.503906 90.53125 667.503906 90.988281 C 667.503906 91.59375 667.503906 92.203125 667.351562 92.808594 C 667.351562 93.417969 667.351562 94.023438 667.199219 94.632812 C 667.199219 95.390625 667.199219 96 667.046875 96.609375 C 667.046875 97.214844 667.046875 97.824219 666.894531 98.277344 C 666.894531 99.039062 666.742188 99.644531 666.742188 100.40625 C 666.742188 101.011719 666.742188 101.621094 666.589844 102.226562 C 666.589844 102.988281 666.4375 103.746094 666.4375 104.507812 C 666.4375 105.113281 666.4375 105.722656 666.285156 106.175781 C 666.285156 106.9375 666.132812 107.847656 666.132812 108.609375 C 666.132812 109.214844 665.984375 109.671875 665.984375 110.277344 C 665.984375 111.191406 665.832031 111.949219 665.832031 112.859375 C 665.832031 113.46875 665.679688 114.074219 665.679688 114.53125 C 665.527344 115.441406 665.527344 116.355469 665.375 117.265625 C 665.375 117.875 665.222656 118.328125 665.222656 118.9375 C 665.222656 119.847656 665.070312 120.757812 664.917969 121.824219 C 664.917969 122.429688 664.765625 122.886719 664.765625 123.492188 C 664.613281 124.558594 664.613281 125.46875 664.460938 126.53125 C 664.460938 127.140625 664.3125 127.59375 664.3125 128.203125 C 664.160156 129.265625 664.160156 130.175781 664.007812 131.242188 C 664.007812 131.847656 663.855469 132.304688 663.855469 132.910156 C 663.703125 133.976562 663.550781 135.039062 663.550781 136.101562 C 663.398438 136.707031 663.398438 137.164062 663.398438 137.773438 C 663.246094 138.835938 663.09375 139.898438 662.941406 140.960938 C 662.941406 141.417969 662.792969 142.023438 662.792969 142.480469 C 662.640625 143.542969 662.488281 144.757812 662.335938 145.824219 C 662.335938 146.277344 662.183594 146.886719 662.183594 147.339844 C 662.03125 148.558594 661.878906 149.773438 661.726562 150.988281 C 661.726562 151.441406 661.574219 151.898438 661.574219 152.355469 C 661.421875 153.570312 661.269531 154.785156 661.121094 156 C 661.121094 156.457031 660.96875 156.910156 660.96875 157.367188 C 660.816406 158.582031 660.511719 159.796875 660.359375 161.164062 C 660.359375 161.621094 660.207031 162.074219 660.207031 162.53125 C 660.054688 163.746094 659.75 165.113281 659.597656 166.328125 C 659.597656 166.785156 659.449219 167.242188 659.449219 167.695312 C 659.296875 169.0625 658.992188 170.277344 658.839844 171.644531 C 658.839844 172.101562 658.6875 172.40625 658.6875 172.859375 C 658.382812 174.226562 658.230469 175.59375 657.929688 176.960938 C 657.929688 177.417969 657.777344 177.722656 657.777344 178.175781 C 657.472656 179.542969 657.320312 180.910156 657.015625 182.277344 C 657.015625 182.582031 656.863281 183.039062 656.863281 183.339844 C 656.558594 184.707031 656.40625 186.074219 656.105469 187.59375 C 656.105469 187.898438 655.953125 188.355469 655.953125 188.660156 C 655.648438 190.023438 655.34375 191.542969 655.191406 192.910156 C 655.191406 193.214844 655.039062 193.671875 655.039062 193.976562 C 654.734375 195.492188 654.433594 196.859375 654.128906 198.378906 C 654.128906 198.683594 653.976562 198.988281 653.976562 199.292969 C 653.671875 200.808594 653.367188 202.175781 653.066406 203.695312 C 653.066406 204 652.914062 204.304688 652.914062 204.609375 C 652.609375 206.125 652.304688 207.644531 652 209.164062 C 652 209.46875 651.847656 209.773438 651.847656 209.925781 C 651.542969 211.441406 651.242188 212.960938 650.785156 214.480469 C 650.785156 214.632812 650.632812 214.9375 650.632812 215.089844 C 650.328125 216.609375 649.871094 218.277344 649.570312 219.796875 C 649.570312 219.949219 649.417969 220.253906 649.417969 220.40625 C 648.960938 221.925781 648.65625 223.59375 648.203125 225.113281 C 648.203125 225.265625 648.203125 225.417969 648.050781 225.570312 C 647.59375 227.242188 647.289062 228.757812 646.832031 230.429688 C 646.832031 230.582031 646.832031 230.734375 646.679688 230.886719 C 646.226562 232.558594 645.769531 234.074219 645.464844 235.746094 C 645.464844 235.898438 645.464844 236.050781 645.3125 236.050781 C 644.859375 237.722656 644.402344 239.390625 643.945312 241.0625 C 643.945312 241.0625 643.945312 241.214844 643.945312 241.214844 C 643.488281 242.886719 643.035156 244.558594 642.425781 246.226562 C 629.964844 289.214844 612.488281 327.644531 588.777344 346.023438 C 587.5625 346.9375 586.5 347.695312 585.28125 348.609375 C 521.757812 391.292969 515.675781 480.609375 520.539062 493.976562 C 521.605469 496.707031 522.820312 500.808594 524.1875 505.976562 C 525.554688 505.519531 527.074219 505.519531 528.445312 506.429688 C 530.265625 505.367188 531.785156 506.277344 533.003906 507.492188 C 533.003906 507.796875 532.699219 508.253906 533.457031 508.40625 C 535.433594 508.707031 536.953125 509.925781 538.625 510.683594 C 538.929688 510.835938 539.234375 510.988281 539.539062 510.835938 C 541.363281 510.378906 542.882812 511.292969 544.097656 512.808594 C 544.097656 512.808594 544.25 512.960938 544.25 512.960938 C 545.007812 512.808594 545.921875 513.265625 546.679688 513.722656 C 547.441406 514.175781 548.199219 514.785156 548.960938 515.089844 C 549.71875 515.390625 550.785156 516.609375 551.542969 517.367188 C 552.304688 518.277344 553.0625 518.886719 552.910156 518.886719 C 552.910156 518.886719 552.457031 518.734375 552.152344 518.734375 C 550.023438 518.277344 547.59375 518.125 544.554688 518.125 C 541.96875 518.125 540.144531 516.757812 538.019531 516.910156 C 536.042969 517.0625 534.066406 516.910156 532.394531 516.757812 C 531.332031 516.609375 530.113281 516.757812 529.050781 516.910156 C 528.140625 517.0625 527.378906 517.0625 526.621094 516.757812 C 527.683594 522.074219 528.59375 527.847656 529.203125 533.621094 C 529.507812 533.773438 529.660156 534.074219 529.964844 534.074219 C 532.089844 533.925781 534.21875 534.378906 535.433594 536.203125 C 537.410156 535.898438 538.472656 537.265625 539.234375 538.9375 C 539.234375 539.242188 538.777344 539.542969 539.234375 539.847656 C 540.90625 540.910156 541.96875 542.582031 543.183594 543.949219 C 543.335938 544.101562 543.640625 544.40625 543.945312 544.40625 C 545.921875 544.707031 546.832031 546.074219 547.441406 548.050781 C 547.441406 548.050781 547.59375 548.203125 547.59375 548.203125 C 548.503906 548.355469 548.960938 549.113281 549.566406 549.875 C 550.175781 550.632812 550.632812 551.390625 551.089844 552 C 551.695312 552.609375 552.152344 553.976562 552.609375 555.191406 C 553.0625 556.40625 553.367188 557.164062 553.367188 557.164062 C 553.367188 557.164062 553.0625 556.859375 552.757812 556.707031 C 551.089844 555.492188 548.65625 554.429688 546.074219 553.214844 C 543.640625 552.304688 542.578125 550.175781 540.449219 549.570312 C 538.625 548.960938 536.800781 548.203125 535.28125 547.292969 C 534.371094 546.835938 533.15625 546.378906 532.089844 546.074219 C 531.179688 545.773438 530.417969 545.46875 529.8125 544.859375 C 529.8125 545.46875 529.8125 546.226562 529.8125 546.835938 C 532.546875 553.367188 531.785156 561.265625 526.921875 567.191406 C 526.46875 567.644531 526.164062 568.253906 525.707031 568.707031 C 524.949219 570.53125 523.882812 572.050781 522.820312 573.570312 C 508.230469 593.164062 582.699219 603.34375 517.957031 696.152344 C 492.121094 733.214844 465.222656 751.441406 442.578125 759.949219 C 441.511719 760.40625 440.296875 760.707031 439.234375 761.164062 C 439.234375 761.164062 439.082031 761.164062 438.929688 761.316406 C 437.867188 761.621094 436.800781 762.074219 435.890625 762.378906 C 435.738281 762.378906 435.585938 762.378906 435.433594 762.53125 C 434.523438 762.835938 433.457031 763.140625 432.546875 763.292969 C 432.394531 763.292969 432.242188 763.441406 432.089844 763.441406 C 431.179688 763.746094 430.265625 763.898438 429.355469 764.203125 C 429.203125 764.203125 428.898438 764.355469 428.746094 764.355469 C 427.835938 764.507812 427.074219 764.808594 426.164062 764.960938 C 425.859375 764.960938 425.707031 765.113281 425.402344 765.113281 C 424.644531 765.265625 423.882812 765.417969 422.972656 765.570312 C 422.667969 765.570312 422.515625 765.722656 422.210938 765.722656 C 421.453125 765.875 420.691406 766.027344 420.085938 766.027344 C 419.78125 766.027344 419.476562 766.027344 419.171875 766.175781 C 418.414062 766.328125 417.804688 766.328125 417.195312 766.480469 C 416.890625 766.480469 416.589844 766.480469 416.285156 766.632812 C 415.675781 766.632812 415.070312 766.785156 414.460938 766.785156 C 414.15625 766.785156 413.851562 766.785156 413.398438 766.785156 C 412.789062 766.785156 412.179688 766.9375 411.726562 766.9375 C 411.421875 766.9375 410.964844 766.9375 410.660156 766.9375 C 410.207031 766.9375 409.597656 766.9375 409.140625 766.9375 C 408.6875 766.9375 408.382812 766.9375 408.078125 766.9375 C 407.621094 766.9375 407.164062 766.9375 406.710938 766.9375 C 406.253906 766.9375 405.949219 766.9375 405.496094 766.9375 C 405.039062 766.9375 404.734375 766.9375 404.277344 766.9375 C 403.824219 766.9375 403.367188 766.9375 402.910156 766.9375 C 402.605469 766.9375 402.300781 766.9375 402 766.9375 C 399.871094 766.785156 397.894531 766.785156 395.769531 766.632812 L 372.515625 766.632812 C 370.84375 766.632812 369.171875 766.785156 367.5 766.785156 C 367.195312 766.785156 366.738281 766.785156 366.4375 766.785156 C 365.980469 766.785156 365.675781 766.785156 365.21875 766.785156 C 364.765625 766.785156 364.460938 766.785156 364.003906 766.785156 C 363.546875 766.785156 363.246094 766.785156 362.789062 766.785156 C 362.332031 766.785156 361.875 766.785156 361.421875 766.785156 C 361.117188 766.785156 360.660156 766.785156 360.355469 766.785156 C 359.902344 766.785156 359.292969 766.785156 358.835938 766.785156 C 358.535156 766.785156 358.078125 766.785156 357.773438 766.785156 C 357.164062 766.785156 356.710938 766.785156 356.101562 766.632812 C 355.796875 766.632812 355.492188 766.632812 355.039062 766.632812 C 354.429688 766.632812 353.820312 766.480469 353.214844 766.480469 C 352.910156 766.480469 352.605469 766.480469 352.300781 766.328125 C 351.695312 766.175781 350.933594 766.175781 350.328125 766.027344 C 350.023438 766.027344 349.71875 765.875 349.414062 765.875 C 348.65625 765.722656 348.046875 765.722656 347.285156 765.570312 C 346.984375 765.570312 346.679688 765.417969 346.375 765.417969 C 345.617188 765.265625 344.855469 765.113281 344.09375 764.960938 C 343.792969 764.960938 343.488281 764.808594 343.183594 764.808594 C 342.421875 764.660156 341.664062 764.507812 340.753906 764.355469 C 340.449219 764.355469 340.296875 764.203125 339.992188 764.203125 C 339.230469 764.050781 338.320312 763.746094 337.410156 763.59375 C 337.105469 763.59375 336.953125 763.441406 336.648438 763.441406 C 335.738281 763.140625 334.824219 762.988281 333.914062 762.683594 C 333.609375 762.683594 333.457031 762.53125 333.304688 762.53125 C 332.394531 762.226562 331.480469 761.925781 330.417969 761.621094 C 330.265625 761.621094 329.960938 761.46875 329.808594 761.46875 C 328.898438 761.164062 327.835938 760.707031 326.921875 760.40625 C 326.769531 760.40625 326.617188 760.253906 326.464844 760.253906 C 325.402344 759.796875 324.339844 759.492188 323.425781 759.039062 C 323.273438 759.039062 323.121094 758.886719 322.972656 758.886719 C 321.90625 758.429688 320.84375 757.976562 319.628906 757.519531 C 319.628906 757.519531 319.476562 757.367188 319.324219 757.367188 C 318.109375 756.910156 317.042969 756.304688 315.828125 755.695312 C 315.828125 755.695312 315.828125 755.695312 315.675781 755.695312 C 297.285156 746.582031 276.769531 730.785156 256.707031 704.050781 C 254.886719 701.773438 253.214844 699.339844 251.390625 696.757812 C 188.167969 606.074219 257.773438 594.226562 247.285156 575.542969 C 245.613281 574.480469 244.09375 572.960938 242.726562 571.292969 C 238.167969 565.519531 237.253906 558.226562 239.535156 551.847656 C 239.535156 550.785156 239.382812 549.570312 239.382812 548.355469 C 239.230469 548.355469 239.230469 548.355469 239.078125 548.355469 C 238.625 550.175781 237.105469 550.175781 235.433594 550.175781 C 235.128906 550.027344 234.976562 549.417969 234.519531 549.875 C 233.152344 550.9375 231.328125 551.242188 229.808594 552.152344 C 229.503906 552.304688 229.199219 552.457031 229.199219 552.757812 C 228.59375 554.429688 227.226562 555.191406 225.402344 555.492188 C 225.402344 555.492188 225.25 555.492188 225.25 555.492188 C 224.792969 557.011719 222.515625 557.46875 221.449219 558.683594 C 220.84375 559.292969 219.472656 559.898438 218.410156 560.355469 C 217.195312 560.808594 216.433594 561.265625 216.433594 561.113281 C 216.433594 561.113281 216.738281 560.808594 216.890625 560.507812 C 218.105469 558.835938 218.867188 556.253906 220.386719 553.519531 C 221.601562 551.089844 223.730469 550.027344 224.945312 548.050781 C 226.007812 546.226562 227.378906 544.558594 228.898438 543.34375 C 230.871094 541.671875 232.089844 539.089844 234.976562 538.632812 C 236.496094 538.480469 238.015625 537.113281 239.535156 536.355469 C 239.992188 530.886719 240.75 525.570312 241.664062 520.40625 C 240.75 521.011719 239.535156 520.558594 238.320312 520.101562 C 238.167969 519.796875 238.167969 519.339844 237.710938 519.492188 C 236.039062 519.949219 234.214844 519.492188 232.542969 519.796875 C 232.242188 519.796875 231.9375 519.949219 231.785156 520.101562 C 230.570312 521.46875 229.050781 521.46875 227.226562 521.164062 C 227.226562 521.164062 227.074219 521.164062 227.074219 521.164062 C 226.160156 522.53125 223.730469 521.925781 222.363281 522.683594 C 221.601562 522.988281 220.082031 522.988281 218.867188 522.988281 C 217.652344 522.988281 216.738281 523.140625 216.738281 522.988281 C 216.738281 522.988281 217.195312 522.683594 217.347656 522.53125 C 219.171875 521.316406 220.84375 519.34375 223.121094 517.519531 C 225.25 515.695312 227.53125 515.542969 229.503906 514.328125 C 231.175781 513.113281 233.152344 512.050781 234.976562 511.441406 C 237.40625 510.683594 239.535156 508.710938 242.421875 509.46875 C 242.878906 509.621094 243.488281 509.621094 244.09375 509.621094 C 245.613281 503.089844 247.285156 497.621094 248.503906 494.429688 C 253.367188 481.0625 247.285156 391.746094 183.761719 349.0625 C 168.105469 338.429688 155.035156 319.292969 144.246094 295.59375 C 144.246094 295.59375 144.246094 295.441406 144.09375 295.441406 C 143.484375 294.074219 142.878906 292.710938 142.269531 291.191406 C 142.269531 291.039062 142.117188 291.039062 142.117188 290.886719 C 141.511719 289.519531 140.902344 288.152344 140.445312 286.785156 C 140.445312 286.632812 140.292969 286.480469 140.292969 286.328125 C 139.6875 284.960938 139.230469 283.59375 138.621094 282.226562 C 138.621094 282.074219 138.472656 281.773438 138.320312 281.621094 C 137.710938 280.253906 137.253906 278.886719 136.800781 277.519531 C 136.648438 277.214844 136.648438 277.0625 136.496094 276.757812 C 136.039062 275.394531 135.429688 274.027344 134.976562 272.660156 C 134.824219 272.355469 134.824219 272.050781 134.671875 271.746094 C 134.214844 270.378906 133.757812 269.011719 133.304688 267.796875 C 133.152344 267.492188 133 267.191406 133 266.886719 C 132.542969 265.519531 132.085938 264.304688 131.632812 262.9375 C 131.480469 262.632812 131.480469 262.175781 131.328125 261.875 C 130.871094 260.507812 130.417969 259.292969 130.113281 257.925781 C 129.960938 257.46875 129.808594 257.164062 129.808594 256.859375 C 129.351562 255.492188 129.046875 254.277344 128.59375 252.910156 C 128.441406 252.457031 128.441406 252.152344 128.289062 251.695312 C 127.832031 250.328125 127.527344 249.113281 127.074219 247.746094 C 126.921875 247.292969 126.921875 246.988281 126.769531 246.53125 C 126.3125 245.164062 126.007812 243.949219 125.703125 242.582031 C 125.554688 242.125 125.402344 241.671875 125.402344 241.214844 C 125.097656 239.847656 124.640625 238.632812 124.335938 237.265625 C 124.183594 236.808594 124.03125 236.355469 124.03125 235.898438 C 123.730469 234.53125 123.273438 233.316406 122.96875 231.949219 C 122.816406 231.492188 122.816406 231.039062 122.664062 230.582031 C 122.363281 229.367188 122.058594 228 121.753906 226.632812 C 121.601562 226.175781 121.449219 225.722656 121.449219 225.113281 C 121.144531 223.898438 120.839844 222.53125 120.539062 221.316406 C 120.386719 220.859375 120.234375 220.253906 120.234375 219.796875 C 119.929688 218.582031 119.625 217.214844 119.320312 216 C 119.167969 215.542969 119.167969 214.9375 119.019531 214.480469 C 118.714844 213.265625 118.410156 211.898438 118.105469 210.683594 C 117.953125 210.226562 117.800781 209.621094 117.800781 209.164062 C 117.5 207.949219 117.195312 206.582031 117.042969 205.367188 C 116.890625 204.757812 116.738281 204.304688 116.738281 203.847656 C 116.433594 202.632812 116.28125 201.417969 115.976562 200.050781 C 115.828125 199.441406 115.675781 198.988281 115.675781 198.378906 C 115.371094 197.164062 115.21875 195.949219 114.914062 194.734375 C 114.761719 194.125 114.761719 193.671875 114.609375 193.0625 C 114.457031 191.847656 114.15625 190.632812 113.851562 189.417969 C 113.699219 188.808594 113.699219 188.355469 113.546875 187.746094 C 113.242188 186.53125 113.089844 185.316406 112.9375 184.101562 C 112.785156 183.492188 112.785156 182.886719 112.636719 182.429688 C 112.484375 181.214844 112.179688 180.152344 112.027344 178.9375 C 111.875 178.328125 111.875 177.722656 111.722656 177.113281 C 111.570312 175.898438 111.265625 174.835938 111.113281 173.621094 C 110.964844 173.011719 110.964844 172.40625 110.8125 171.796875 C 110.660156 170.582031 110.355469 169.519531 110.203125 168.304688 C 110.050781 167.695312 110.050781 167.089844 109.898438 166.480469 C 109.746094 165.265625 109.59375 164.203125 109.441406 163.140625 C 109.292969 162.53125 109.292969 161.925781 109.140625 161.316406 C 108.988281 160.253906 108.835938 159.039062 108.683594 157.976562 C 108.53125 157.367188 108.53125 156.757812 108.378906 156.152344 C 108.226562 155.089844 108.074219 154.027344 107.921875 152.808594 C 107.773438 152.203125 107.773438 151.59375 107.621094 150.988281 C 107.46875 149.925781 107.316406 148.859375 107.164062 147.796875 C 107.011719 147.191406 107.011719 146.582031 106.859375 145.976562 C 106.707031 144.910156 106.554688 143.847656 106.402344 142.9375 C 106.25 142.328125 106.25 141.722656 106.101562 141.113281 C 105.949219 140.050781 105.796875 139.140625 105.644531 138.074219 C 105.644531 137.46875 105.492188 136.859375 105.492188 136.253906 C 105.339844 135.191406 105.1875 134.277344 105.1875 133.214844 C 105.1875 132.609375 105.035156 132 105.035156 131.394531 C 104.882812 130.480469 104.882812 129.570312 104.730469 128.507812 C 104.730469 127.898438 104.578125 127.292969 104.578125 126.53125 C 103.972656 125.621094 103.820312 124.707031 103.820312 123.796875 C 103.820312 123.191406 103.667969 122.582031 103.667969 121.976562 C 103.515625 121.0625 103.515625 120.152344 103.363281 119.242188 C 103.363281 118.632812 103.210938 118.023438 103.210938 117.417969 C 103.0625 116.507812 103.0625 115.746094 102.910156 114.835938 C 102.910156 114.226562 102.757812 113.621094 102.757812 113.011719 C 102.757812 112.253906 102.605469 111.34375 102.605469 110.582031 C 102.605469 109.976562 102.453125 109.367188 102.453125 108.757812 C 102.453125 108 102.300781 107.242188 102.300781 106.328125 C 102.300781 105.722656 102.148438 105.113281 102.148438 104.507812 C 102.148438 103.746094 101.996094 102.988281 101.996094 102.226562 C 101.996094 101.621094 101.996094 101.011719 101.84375 100.40625 C 101.84375 99.644531 101.691406 99.039062 101.691406 98.277344 C 101.691406 97.671875 101.691406 97.0625 101.539062 96.457031 C 101.539062 95.847656 101.390625 95.089844 101.390625 94.480469 C 101.390625 93.875 101.390625 93.265625 101.238281 92.660156 C 101.238281 92.050781 101.238281 91.441406 101.085938 90.835938 C 101.085938 90.226562 101.085938 89.621094 101.085938 89.164062 C 101.085938 88.558594 101.085938 87.949219 101.085938 87.34375 C 101.085938 86.734375 101.085938 86.125 101.085938 85.671875 C 101.085938 85.214844 101.085938 84.609375 101.085938 84.152344 C 101.085938 83.542969 101.085938 82.9375 101.085938 82.480469 C 101.085938 82.023438 101.085938 81.417969 101.085938 80.960938 C 101.085938 80.355469 101.085938 79.898438 101.085938 79.292969 C 101.085938 78.835938 101.085938 78.378906 101.085938 77.925781 C 101.085938 77.316406 101.085938 76.859375 101.085938 76.40625 C 101.085938 75.949219 101.085938 75.492188 101.085938 75.191406 C 101.085938 74.582031 101.085938 73.976562 101.085938 73.519531 C 101.085938 73.214844 101.085938 72.910156 101.085938 72.609375 C 101.085938 71.695312 101.085938 70.9375 101.085938 70.175781 C 101.996094 18.378906 115.523438 0.609375 164.308594 9.265625 C 165.21875 9.417969 166.132812 9.570312 167.042969 9.875 C 167.347656 9.875 167.652344 10.023438 167.953125 10.175781 C 168.5625 10.328125 169.324219 10.632812 169.929688 10.785156 C 170.234375 10.9375 170.539062 10.9375 170.84375 11.089844 C 171.601562 11.390625 172.363281 11.695312 173.121094 12 C 173.273438 12 173.578125 12.152344 173.730469 12.152344 C 174.640625 12.609375 175.707031 13.0625 176.617188 13.519531 C 176.921875 13.671875 177.074219 13.824219 177.378906 13.976562 C 178.289062 14.429688 179.050781 14.734375 179.808594 15.191406 C 180.113281 15.339844 180.417969 15.644531 180.722656 15.796875 C 181.480469 16.253906 182.242188 16.707031 183 17.164062 C 183.304688 17.316406 183.609375 17.46875 183.761719 17.621094 C 184.824219 18.226562 185.734375 18.988281 186.800781 19.59375 C 186.953125 19.746094 187.105469 19.898438 187.253906 19.898438 C 188.167969 20.507812 189.078125 21.113281 189.992188 21.875 C 190.296875 22.175781 190.597656 22.328125 190.902344 22.632812 C 191.664062 23.242188 192.421875 23.847656 193.183594 24.457031 C 193.488281 24.757812 193.789062 24.910156 194.09375 25.214844 C 195.160156 25.976562 196.222656 26.886719 197.285156 27.796875 C 197.285156 27.796875 197.285156 27.796875 197.4375 27.796875 C 198.503906 28.707031 199.71875 29.621094 200.78125 30.683594 C 201.085938 30.988281 201.390625 31.140625 201.695312 31.441406 C 202.605469 32.203125 203.367188 32.960938 204.277344 33.722656 C 204.582031 34.023438 204.886719 34.328125 205.1875 34.632812 C 206.101562 35.542969 207.011719 36.457031 207.925781 37.367188 C 208.078125 37.519531 208.230469 37.671875 208.53125 37.824219 C 209.75 38.886719 210.8125 40.101562 212.027344 41.164062 C 212.179688 41.316406 212.484375 41.621094 212.636719 41.773438 C 213.546875 42.683594 214.460938 43.746094 215.523438 44.660156 C 215.828125 44.960938 216.132812 45.265625 216.433594 45.570312 C 217.347656 46.480469 218.257812 47.542969 219.171875 48.609375 C 219.476562 48.757812 219.625 49.0625 219.777344 49.367188 C 222.058594 51.949219 224.488281 54.53125 226.769531 57.113281 C 227.074219 57.417969 227.226562 57.570312 227.378906 57.875 C 228.289062 58.9375 229.351562 60.152344 230.265625 61.214844 C 230.417969 61.519531 230.722656 61.671875 230.875 61.976562 C 233.152344 64.707031 235.585938 67.59375 237.863281 70.480469 C 238.015625 70.632812 238.167969 70.785156 238.167969 70.9375 C 239.230469 72.304688 240.296875 73.519531 241.359375 74.886719 C 241.511719 75.039062 241.664062 75.339844 241.816406 75.492188 C 245.160156 79.746094 248.503906 84.152344 251.695312 88.558594 C 251.847656 88.859375 251.996094 89.011719 252.148438 89.316406 C 252.300781 89.46875 252.300781 89.621094 252.453125 89.773438 C 253.519531 91.292969 254.734375 92.808594 255.796875 94.328125 C 259.292969 99.191406 262.636719 104.050781 265.980469 108.910156 C 284.671875 136.40625 300.175781 164.050781 308.835938 183.644531 C 309.292969 184.707031 309.75 185.773438 310.203125 186.683594 C 311.421875 189.570312 312.484375 192.152344 313.246094 194.582031 C 329.203125 240.910156 318.109375 228.757812 336.496094 269.011719 C 346.984375 292.101562 343.488281 322.175781 341.816406 346.785156 C 341.359375 353.773438 331.632812 414.683594 340.449219 416.65625 C 341.359375 416.808594 342.273438 416.507812 343.183594 416.355469 C 355.949219 412.40625 369.628906 415.898438 382.851562 416.050781 C 389.839844 416.050781 396.832031 415.140625 403.671875 414.835938 C 410.207031 414.53125 418.109375 416.65625 424.1875 415.898438 C 430.570312 414.988281 429.960938 414.988281 430.722656 408.152344 C 432.089844 395.089844 429.355469 380.808594 428.140625 367.898438 C 425.402344 337.367188 418.566406 298.023438 431.632812 269.011719 C 450.023438 228.757812 438.929688 240.910156 454.886719 194.582031 C 455.949219 191.390625 457.46875 187.59375 459.140625 183.644531 C 459.140625 183.644531 459.140625 183.644531 459.140625 183.492188 C 461.117188 179.089844 463.246094 174.378906 465.828125 169.367188 C 474.1875 152.808594 485.890625 132.910156 499.265625 112.707031 C 499.417969 112.558594 499.566406 112.253906 499.71875 112.101562 C 500.632812 110.734375 501.542969 109.367188 502.457031 107.847656 C 502.609375 107.695312 502.757812 107.542969 502.757812 107.242188 C 504.886719 104.050781 507.015625 101.011719 509.292969 97.824219 C 509.445312 97.671875 509.445312 97.519531 509.597656 97.367188 C 510.511719 96 511.574219 94.632812 512.484375 93.265625 C 512.636719 92.960938 512.941406 92.65625 513.09375 92.507812 C 514.15625 91.140625 515.070312 89.773438 516.132812 88.253906 C 516.132812 88.101562 516.285156 88.101562 516.285156 87.949219 C 517.5 86.429688 518.566406 84.910156 519.78125 83.242188 C 519.78125 83.242188 519.78125 83.242188 519.933594 83.089844 C 520.996094 81.722656 522.0625 80.355469 523.125 78.835938 C 523.429688 78.53125 523.582031 78.226562 523.882812 77.925781 C 524.796875 76.707031 525.707031 75.492188 526.621094 74.429688 C 526.925781 74.125 527.074219 73.824219 527.378906 73.519531 C 529.660156 70.632812 531.9375 67.746094 534.21875 65.011719 C 534.523438 64.707031 534.675781 64.40625 534.980469 64.253906 C 535.890625 63.191406 536.800781 62.125 537.714844 61.0625 C 538.019531 60.757812 538.320312 60.457031 538.625 60 C 539.539062 58.9375 540.601562 57.722656 541.515625 56.65625 C 541.664062 56.507812 541.816406 56.203125 542.121094 56.050781 C 543.335938 54.683594 544.402344 53.46875 545.617188 52.101562 C 545.769531 51.949219 545.921875 51.796875 546.074219 51.644531 C 546.984375 50.582031 548.046875 49.519531 548.960938 48.457031 C 549.265625 48.152344 549.570312 47.847656 549.871094 47.390625 C 550.785156 46.480469 551.542969 45.570312 552.457031 44.65625 C 552.761719 44.355469 553.0625 44.050781 553.367188 43.746094 C 555.648438 41.46875 557.925781 39.191406 560.054688 37.0625 C 560.359375 36.757812 560.664062 36.457031 560.964844 36.152344 C 561.726562 35.390625 562.636719 34.632812 563.398438 33.875 C 563.703125 33.570312 564.007812 33.265625 564.460938 32.960938 C 565.375 32.203125 566.132812 31.441406 567.046875 30.683594 C 567.351562 30.53125 567.5 30.226562 567.804688 30.074219 C 568.871094 29.164062 569.933594 28.101562 571.148438 27.339844 C 571.300781 27.191406 571.605469 27.039062 571.757812 26.734375 C 572.667969 25.976562 573.429688 25.367188 574.339844 24.609375 C 574.644531 24.304688 575.101562 24.152344 575.40625 23.847656 C 576.164062 23.242188 576.925781 22.632812 577.683594 22.023438 C 577.988281 21.722656 578.292969 21.570312 578.597656 21.265625 C 579.660156 20.507812 580.722656 19.746094 581.636719 18.988281 C 582.699219 18.226562 583.761719 17.621094 584.675781 17.011719 C 584.980469 16.859375 585.28125 16.558594 585.585938 16.40625 C 586.347656 15.949219 587.105469 15.492188 587.714844 15.039062 C 588.019531 14.886719 588.324219 14.582031 588.777344 14.429688 C 589.539062 13.976562 590.296875 13.671875 591.058594 13.214844 C 591.210938 13.0625 591.515625 12.910156 591.816406 12.910156 C 592.882812 12.457031 593.792969 12 594.707031 11.542969 C 594.859375 11.390625 595.160156 11.390625 595.3125 11.242188 C 596.074219 10.9375 596.832031 10.632812 597.59375 10.328125 C 597.898438 10.175781 598.203125 10.175781 598.503906 10.023438 C 599.113281 9.875 599.871094 9.570312 600.480469 9.417969 C 600.785156 9.265625 601.089844 9.265625 601.242188 9.113281 C 602.152344 8.808594 603.066406 8.65625 603.976562 8.507812 C 652.761719 0 666.285156 17.621094 667.503906 69.265625 C 667.503906 70.785156 667.503906 71.695312 667.503906 72.457031 Z M 238.472656 519.644531 Z M 538.472656 538.785156 Z M 532.089844 507.339844 Z M 532.089844 507.339844 " fill-opacity="1" fill-rule="nonzero"/><path fill="#efefef" d="M 251.996094 88.859375 C 251.847656 88.707031 251.847656 88.558594 251.695312 88.40625 C 251.847656 88.558594 251.847656 88.707031 251.996094 88.859375 Z M 287.710938 366.835938 C 314.613281 364.40625 315.828125 325.367188 310.964844 276.457031 C 308.535156 251.390625 309.140625 215.542969 310.355469 186.683594 C 303.519531 170.277344 291.054688 147.492188 275.859375 123.492188 C 300.023438 210.988281 296.375 318.226562 287.710938 333.265625 C 277.378906 351.492188 257.46875 328.707031 242.726562 301.976562 C 243.335938 304.40625 261.269531 369.265625 287.710938 366.835938 Z M 481.027344 333.417969 C 472.515625 318.378906 468.71875 210.074219 493.335938 122.429688 C 477.683594 146.886719 464.917969 170.429688 457.925781 186.988281 C 459.140625 215.847656 459.902344 251.542969 457.320312 276.609375 C 452.457031 325.367188 453.671875 364.40625 480.570312 366.988281 C 504.734375 369.113281 521.757812 315.191406 524.949219 304.101562 C 510.359375 329.773438 491.210938 351.191406 481.027344 333.417969 Z M 489.234375 682.9375 C 457.46875 666.988281 469.78125 612.152344 478.292969 584.050781 C 486.800781 555.949219 504.582031 507.191406 492.578125 503.542969 C 480.722656 499.898438 451.390625 559.746094 441.664062 577.976562 C 441.664062 577.976562 441.664062 578.125 441.511719 578.277344 C 435.585938 589.519531 424.339844 597.113281 411.726562 598.785156 C 386.953125 602.125 368.5625 601.519531 356.253906 600.152344 C 343.488281 598.632812 332.394531 590.886719 326.316406 579.644531 C 326.011719 579.191406 325.707031 578.582031 325.554688 578.125 C 315.828125 559.898438 286.496094 500.050781 274.640625 503.695312 C 262.789062 507.339844 280.417969 556.101562 288.929688 584.203125 C 297.4375 612.304688 309.75 667.140625 277.984375 683.089844 C 266.738281 688.707031 260.203125 696.152344 256.40625 703.441406 C 299.261719 760.558594 343.945312 767.847656 366.890625 766.632812 C 368.5625 766.480469 370.234375 766.480469 371.90625 766.480469 L 395.160156 766.480469 C 397.136719 766.480469 399.261719 766.632812 401.238281 766.785156 C 424.035156 768 468.414062 760.707031 511.117188 704.507812 C 507.621094 696.609375 500.9375 688.707031 489.234375 682.9375 Z M 543.792969 216.757812 Z M 558.992188 177.417969 C 559.75 176.203125 560.664062 175.140625 561.269531 173.773438 C 562.789062 170.582031 564.308594 167.847656 566.132812 165.875 C 566.285156 165.570312 566.742188 165.265625 566.742188 165.113281 C 566.742188 164.960938 565.832031 165.570312 564.308594 166.023438 C 563.550781 166.328125 562.789062 166.632812 562.03125 166.9375 C 561.421875 167.390625 560.816406 167.695312 560.359375 168.152344 C 558.839844 169.671875 556.253906 171.039062 555.800781 172.859375 C 555.800781 172.859375 555.648438 173.011719 555.496094 173.011719 C 553.519531 174.226562 551.847656 175.59375 551.542969 177.875 C 551.542969 178.175781 551.242188 178.632812 550.9375 178.9375 C 549.417969 180.757812 547.746094 182.429688 546.679688 184.558594 C 546.378906 185.164062 546.074219 184.859375 545.769531 184.859375 C 544.097656 186.226562 542.578125 187.59375 543.035156 190.023438 C 541.363281 192 540.753906 194.429688 541.058594 196.859375 C 541.058594 197.164062 540.753906 197.46875 540.601562 197.773438 C 539.992188 198.53125 540.144531 199.59375 539.84375 200.355469 C 539.082031 202.632812 539.386719 205.214844 538.472656 207.191406 C 536.953125 210.53125 535.433594 213.570312 535.738281 217.671875 C 535.890625 221.164062 533.460938 224.660156 533.914062 228.457031 C 533.914062 228.609375 533.761719 228.910156 533.761719 228.910156 C 532.546875 230.429688 532.699219 232.253906 533.003906 234.074219 C 533.15625 235.441406 532.851562 237.113281 532.242188 237.570312 C 530.722656 238.785156 530.722656 240.910156 531.027344 242.734375 C 531.179688 244.101562 531.332031 245.316406 531.027344 246.683594 C 530.875 247.59375 531.027344 248.660156 531.027344 249.570312 C 530.875 252.152344 530.417969 254.734375 530.875 257.316406 C 530.875 257.46875 530.875 257.621094 530.722656 257.773438 C 530.269531 259.746094 530.269531 262.023438 530.117188 264 C 529.964844 266.886719 530.417969 269.621094 530.269531 272.355469 C 530.269531 277.214844 530.875 280.101562 531.179688 282.53125 C 531.332031 283.441406 531.332031 284.660156 531.484375 283.898438 C 531.636719 282.988281 532.242188 278.734375 532.242188 277.824219 C 532.242188 275.847656 532.242188 273.265625 532.699219 271.59375 C 533.761719 266.582031 533.761719 261.417969 534.980469 256.558594 C 534.980469 254.277344 536.195312 251.695312 535.738281 249.570312 C 535.738281 249.417969 535.890625 248.960938 536.042969 248.808594 C 536.800781 247.59375 536.800781 246.378906 536.800781 245.164062 C 536.800781 243.492188 537.105469 241.824219 537.867188 240.304688 C 538.472656 238.9375 538.929688 237.722656 538.625 236.203125 C 538.472656 235.746094 538.625 234.988281 538.929688 234.53125 C 540.601562 230.886719 541.210938 226.9375 542.578125 223.140625 C 543.335938 221.011719 542.730469 218.582031 544.097656 216.609375 C 543.792969 214.785156 544.402344 212.960938 545.3125 211.59375 C 547.59375 208.101562 548.199219 204.304688 549.570312 200.660156 C 550.175781 198.835938 550.480469 196.558594 551.695312 195.339844 C 553.824219 193.0625 553.671875 189.875 554.886719 187.292969 C 555.34375 186.226562 555.800781 185.164062 556.105469 184.101562 C 556.558594 183.039062 556.863281 181.824219 557.320312 180.609375 C 557.320312 179.695312 558.230469 178.632812 558.992188 177.417969 Z M 545.769531 185.164062 C 545.769531 185.164062 545.921875 185.164062 545.769531 185.164062 C 545.921875 185.164062 545.921875 185.164062 545.769531 185.164062 Z M 577.378906 212.660156 Z M 589.84375 207.339844 C 589.84375 207.191406 589.234375 207.339844 588.476562 207.339844 C 587.714844 207.339844 586.652344 207.492188 586.347656 207.796875 C 585.890625 208.101562 585.433594 208.253906 584.828125 208.40625 C 584.371094 208.558594 583.761719 208.859375 583.761719 209.46875 C 583.761719 209.46875 583.613281 209.46875 583.613281 209.46875 C 582.242188 209.46875 581.179688 209.773438 581.179688 210.988281 C 581.179688 211.140625 581.027344 211.292969 580.875 211.441406 C 579.964844 212.050781 578.75 212.203125 577.988281 212.960938 C 577.835938 213.265625 577.53125 212.808594 577.226562 212.660156 C 576.011719 212.660156 574.796875 212.808594 575.101562 214.328125 C 573.734375 214.632812 573.277344 215.695312 573.429688 217.214844 C 573.429688 217.367188 573.125 217.367188 572.972656 217.519531 C 572.515625 217.671875 572.515625 218.277344 572.214844 218.582031 C 571.453125 219.339844 571.605469 221.011719 570.84375 221.46875 C 569.324219 222.378906 567.957031 223.292969 567.804688 225.417969 C 567.652344 227.242188 565.222656 227.695312 565.222656 229.824219 C 565.222656 229.824219 565.070312 229.976562 565.070312 229.976562 C 564.007812 230.125 563.855469 231.039062 563.855469 231.949219 C 563.855469 232.707031 563.398438 233.316406 562.941406 233.316406 C 561.574219 233.164062 561.269531 234.074219 561.269531 235.140625 C 561.269531 235.898438 561.269531 236.507812 560.816406 236.960938 C 560.664062 237.417969 560.511719 237.875 560.359375 238.175781 C 559.902344 239.390625 559.144531 240.304688 559.296875 241.671875 C 559.296875 241.671875 559.144531 241.824219 559.144531 241.824219 C 558.535156 242.582031 558.230469 243.492188 557.773438 244.40625 C 557.167969 245.621094 557.167969 246.988281 556.710938 248.050781 C 555.953125 250.175781 556.105469 251.542969 556.105469 252.757812 C 556.105469 253.214844 555.800781 253.671875 556.105469 253.367188 C 556.40625 253.0625 557.625 251.390625 557.773438 251.089844 C 558.078125 250.175781 558.535156 249.113281 558.992188 248.507812 C 560.664062 246.835938 561.421875 244.558594 563.09375 242.886719 C 563.398438 241.824219 564.765625 241.367188 564.613281 240.152344 C 564.613281 240.152344 564.765625 240 564.917969 239.847656 C 565.679688 239.695312 565.832031 239.089844 565.980469 238.480469 C 566.132812 237.722656 566.589844 237.113281 567.351562 236.808594 C 567.957031 236.507812 568.566406 236.050781 568.414062 235.292969 C 568.414062 234.988281 568.566406 234.683594 568.871094 234.53125 C 570.695312 233.621094 571.453125 232.101562 572.972656 231.039062 C 573.886719 230.429688 573.429688 228.910156 574.796875 228.609375 C 574.644531 227.542969 575.253906 226.9375 576.164062 226.785156 C 578.292969 226.175781 578.898438 224.507812 579.964844 223.292969 C 580.570312 222.683594 580.722656 221.46875 581.636719 221.46875 C 583.308594 221.316406 583.15625 219.191406 583.914062 218.277344 C 584.523438 217.519531 584.980469 216.457031 585.28125 215.242188 C 585.738281 213.875 587.105469 213.570312 587.5625 212.050781 C 588.171875 210.378906 588.625 208.707031 589.386719 207.644531 C 589.691406 207.492188 589.84375 207.339844 589.84375 207.339844 Z M 589.84375 207.339844 " fill-opacity="1" fill-rule="nonzero"/><path fill="#4e3d34" d="M 257.773438 428.507812 C 259.597656 428.050781 261.875 427.898438 263.09375 427.292969 C 264.914062 426.53125 265.980469 426.988281 267.652344 427.292969 C 269.324219 427.59375 271.300781 427.746094 272.972656 428.050781 C 273.882812 428.203125 274.492188 428.660156 275.707031 429.113281 C 274.792969 429.570312 274.339844 429.875 273.578125 430.175781 C 271.753906 430.785156 269.628906 431.242188 267.652344 431.695312 C 267.042969 431.847656 265.675781 432 265.675781 432 C 264.613281 431.542969 263.699219 431.089844 262.941406 430.480469 C 262.789062 430.480469 264.15625 430.027344 264.914062 430.027344 C 266.738281 430.027344 269.476562 430.328125 268.714844 429.113281 C 268.410156 428.660156 267.957031 428.355469 267.195312 427.898438 C 267.042969 427.898438 265.21875 427.898438 264.613281 428.203125 C 263.09375 428.660156 262.027344 429.265625 260.355469 429.570312 C 259.902344 429.722656 258.382812 429.417969 257.46875 429.265625 C 255.644531 429.113281 256.859375 428.808594 257.773438 428.507812 Z M 256.253906 387.644531 C 255.039062 387.339844 253.519531 386.429688 253.820312 387.796875 C 253.972656 388.558594 254.277344 389.164062 256.253906 389.621094 C 259.140625 390.226562 259.140625 389.164062 260.355469 388.859375 C 262.179688 388.40625 263.546875 387.796875 265.066406 387.191406 C 265.371094 387.039062 265.523438 386.886719 265.828125 386.734375 C 265.21875 386.734375 264.613281 386.429688 264.003906 386.429688 C 262.179688 386.429688 259.902344 385.976562 259.902344 387.191406 C 259.902344 388.101562 257.925781 387.949219 256.253906 387.644531 Z M 270.539062 440.050781 C 271.753906 439.441406 273.578125 438.988281 275.097656 438.378906 C 275.707031 438.226562 276.164062 437.925781 276.617188 437.773438 C 275.402344 437.46875 274.339844 437.011719 273.273438 436.707031 C 272.515625 436.558594 270.539062 437.011719 270.691406 437.164062 C 271.148438 438.226562 270.691406 438.835938 266.585938 438.683594 C 265.371094 438.683594 264.765625 438.683594 264.613281 438.683594 C 264.613281 437.925781 264.613281 437.621094 264.15625 437.316406 C 263.699219 437.011719 261.875 436.558594 261.574219 436.558594 C 260.355469 436.859375 259.445312 437.164062 258.382812 437.621094 C 260.050781 438.074219 261.574219 438.378906 264.765625 439.292969 C 264.765625 439.292969 264.765625 439.140625 264.765625 438.988281 C 265.066406 439.140625 265.980469 439.441406 266.285156 439.59375 C 267.195312 440.355469 267.804688 441.417969 270.539062 440.050781 Z M 266.132812 407.847656 C 266.585938 408.304688 267.195312 408.609375 267.652344 409.0625 C 268.5625 408.757812 270.234375 408.457031 270.082031 408.304688 C 269.628906 407.847656 268.257812 407.542969 267.347656 407.089844 C 266.890625 407.390625 266.585938 407.542969 266.132812 407.847656 Z M 269.929688 433.367188 C 271.300781 433.519531 272.667969 433.824219 273.882812 433.824219 C 274.492188 433.824219 275.097656 433.671875 275.707031 433.519531 C 274.492188 433.0625 273.425781 432.757812 272.515625 432.457031 Z M 259.75 402.53125 C 260.964844 402.53125 261.875 401.925781 262.941406 401.773438 C 262.027344 401.621094 261.269531 401.46875 260.203125 401.316406 C 258.988281 401.46875 257.925781 401.621094 256.859375 401.773438 C 257.773438 401.925781 258.988281 402.53125 259.75 402.53125 Z M 263.851562 403.746094 C 263.699219 403.898438 265.21875 404.355469 266.132812 404.660156 C 266.285156 404.660156 267.347656 404.355469 268.257812 404.203125 C 267.5 403.59375 266.890625 403.292969 266.285156 402.835938 C 265.371094 403.140625 264.15625 403.292969 263.851562 403.746094 Z M 262.941406 390.835938 C 263.09375 391.292969 263.699219 391.746094 264.15625 392.050781 C 264.460938 391.746094 264.914062 391.441406 265.371094 391.140625 C 264.765625 390.683594 264.308594 390.378906 263.699219 389.925781 C 263.394531 390.378906 262.789062 390.683594 262.941406 390.835938 Z M 264.914062 410.125 C 263.851562 409.824219 262.789062 409.519531 261.875 409.214844 C 261.421875 409.367188 260.660156 409.671875 260.660156 409.824219 C 261.421875 410.125 262.332031 410.429688 263.394531 410.582031 C 263.546875 410.582031 264.15625 410.277344 264.914062 410.125 Z M 263.546875 405.875 C 262.484375 405.570312 261.574219 405.113281 260.507812 404.808594 C 260.203125 404.960938 259.445312 405.265625 259.597656 405.417969 C 260.203125 405.722656 260.964844 406.023438 261.875 406.328125 C 262.027344 406.328125 262.941406 405.875 263.546875 405.875 Z M 253.667969 387.039062 L 250.78125 385.671875 C 250.328125 385.824219 249.414062 385.976562 249.566406 386.125 C 249.871094 386.429688 250.628906 386.734375 250.933594 386.886719 C 252.453125 387.039062 253.0625 387.039062 253.667969 387.039062 Z M 259.140625 432.609375 C 259.597656 432.910156 260.050781 433.367188 260.964844 433.671875 C 261.269531 433.671875 262.484375 433.519531 263.394531 433.367188 C 262.332031 433.0625 261.421875 432.757812 260.355469 432.304688 C 259.902344 432.457031 259.140625 432.609375 259.140625 432.609375 Z M 265.675781 398.429688 C 265.21875 398.734375 264.613281 398.886719 264.613281 399.039062 C 264.765625 399.339844 265.371094 399.644531 265.828125 399.949219 C 266.132812 399.796875 266.738281 399.644531 266.738281 399.492188 C 266.4375 399.039062 265.980469 398.734375 265.675781 398.429688 Z M 262.027344 397.671875 C 261.574219 397.367188 261.117188 397.0625 260.8125 397.0625 C 259.902344 397.0625 258.988281 397.214844 258.078125 397.214844 C 258.382812 397.367188 258.683594 397.671875 258.988281 397.671875 C 260.050781 397.824219 260.964844 397.671875 262.027344 397.671875 Z M 268.714844 389.011719 C 269.324219 389.164062 269.929688 389.316406 270.386719 389.316406 C 271.300781 389.316406 272.058594 389.164062 272.972656 389.011719 C 272.363281 388.859375 271.90625 388.707031 270.996094 388.558594 C 270.234375 388.859375 269.476562 388.859375 268.714844 389.011719 Z M 252.910156 371.847656 C 253.214844 372.152344 253.667969 372.304688 253.820312 372.457031 C 255.339844 372.304688 255.949219 372.152344 256.40625 372.152344 C 255.796875 372 255.1875 371.695312 254.582031 371.695312 C 254.125 371.542969 253.519531 371.695312 252.910156 371.847656 Z M 271.601562 420.457031 C 270.691406 420.457031 269.929688 420.609375 269.019531 420.757812 C 269.628906 420.910156 270.082031 421.0625 270.691406 421.0625 C 271.601562 421.0625 272.363281 420.910156 273.578125 420.757812 C 272.667969 420.757812 272.058594 420.457031 271.601562 420.457031 Z M 264.613281 418.175781 C 263.851562 418.328125 263.09375 418.328125 262.332031 418.480469 C 262.941406 418.632812 263.546875 418.785156 264.003906 418.785156 C 264.914062 418.785156 265.675781 418.632812 266.585938 418.480469 C 265.980469 418.632812 265.523438 418.480469 264.613281 418.175781 Z M 265.675781 414.53125 C 265.066406 414.226562 264.765625 413.925781 264.460938 413.925781 C 263.546875 413.925781 262.636719 414.074219 261.722656 414.074219 C 262.027344 414.226562 262.332031 414.53125 262.636719 414.53125 C 263.546875 414.683594 264.460938 414.683594 265.675781 414.53125 Z M 268.109375 411.191406 C 267.804688 411.339844 267.195312 411.492188 267.195312 411.644531 C 267.347656 411.949219 267.957031 412.253906 268.410156 412.558594 C 268.714844 412.40625 269.019531 412.253906 269.476562 411.949219 C 269.171875 411.796875 268.5625 411.644531 268.109375 411.191406 Z M 257.925781 407.695312 C 256.710938 407.695312 255.796875 407.542969 254.886719 407.542969 C 254.582031 407.542969 254.429688 407.847656 254.125 408 C 255.039062 408.152344 255.949219 408.304688 256.859375 408.304688 C 257.316406 408.304688 257.46875 408 257.925781 407.695312 Z M 255.949219 399.339844 C 255.339844 399.191406 254.734375 399.191406 253.0625 398.886719 C 252.910156 399.039062 252.757812 399.191406 252.453125 399.492188 C 253.0625 399.492188 253.667969 399.796875 254.125 399.644531 C 254.886719 399.796875 255.339844 399.492188 255.949219 399.339844 Z M 262.332031 446.125 C 262.941406 446.125 263.546875 446.429688 264.003906 446.429688 C 264.613281 446.429688 265.066406 446.125 265.675781 445.976562 C 265.066406 445.824219 264.460938 445.824219 262.941406 445.519531 C 262.789062 445.671875 262.484375 445.976562 262.332031 446.125 Z M 247.589844 369.875 C 247.4375 369.722656 247.132812 369.570312 246.832031 369.417969 C 246.679688 369.570312 246.375 369.570312 246.070312 369.722656 C 246.375 369.875 246.679688 370.023438 246.832031 370.175781 C 247.285156 370.023438 247.742188 369.875 247.589844 369.875 Z M 258.835938 370.023438 C 259.140625 370.175781 259.292969 370.175781 259.597656 370.328125 C 259.75 370.175781 260.050781 370.023438 260.203125 369.875 C 260.203125 369.875 259.75 369.722656 259.445312 369.570312 C 259.292969 369.722656 258.988281 369.875 258.835938 370.023438 Z M 248.957031 373.976562 C 248.65625 373.976562 248.351562 373.671875 248.199219 373.671875 C 247.742188 373.671875 247.285156 373.824219 246.832031 373.824219 C 247.132812 373.824219 247.285156 373.976562 247.589844 374.125 C 248.046875 374.125 248.503906 374.125 248.957031 373.976562 Z M 260.050781 374.429688 C 260.507812 374.429688 260.964844 374.277344 261.421875 374.277344 C 261.117188 374.277344 260.964844 374.125 260.660156 373.976562 C 260.203125 374.125 259.75 374.125 259.292969 374.277344 C 259.597656 374.277344 259.902344 374.429688 260.050781 374.429688 Z M 249.71875 378.226562 C 249.414062 378.226562 249.261719 378.074219 248.957031 377.925781 C 248.503906 378.074219 248.046875 378.074219 247.742188 378.226562 C 248.046875 378.226562 248.351562 378.53125 248.503906 378.53125 C 248.957031 378.378906 249.261719 378.226562 249.71875 378.226562 Z M 250.328125 382.632812 C 250.175781 382.480469 249.871094 382.328125 249.566406 382.175781 C 249.414062 382.328125 249.109375 382.328125 248.804688 382.480469 C 249.109375 382.632812 249.414062 382.785156 249.566406 382.9375 C 249.871094 382.785156 250.328125 382.632812 250.328125 382.632812 Z M 255.644531 384.609375 C 255.796875 384.757812 256.101562 384.910156 256.40625 385.0625 C 256.558594 384.910156 257.011719 384.910156 257.011719 384.757812 C 256.859375 384.609375 256.558594 384.457031 256.253906 384.304688 C 256.101562 384.457031 255.644531 384.457031 255.644531 384.609375 Z M 252.148438 391.140625 C 251.847656 390.988281 251.542969 390.835938 251.238281 390.683594 C 251.085938 390.835938 250.628906 390.835938 250.628906 390.988281 C 250.78125 391.140625 251.085938 391.292969 251.390625 391.441406 C 251.695312 391.140625 251.996094 391.140625 252.148438 391.140625 Z M 252.910156 395.242188 C 252.757812 395.089844 252.453125 394.9375 252.148438 394.785156 C 251.996094 394.9375 251.695312 394.9375 251.390625 395.089844 C 251.695312 395.242188 251.996094 395.390625 252.148438 395.542969 C 252.605469 395.390625 253.0625 395.390625 252.910156 395.242188 Z M 264.914062 395.695312 C 265.066406 395.542969 265.371094 395.390625 265.523438 395.242188 C 265.21875 395.089844 264.914062 395.089844 264.765625 394.9375 C 264.613281 395.089844 264.308594 395.242188 264.15625 395.390625 C 264.15625 395.542969 264.613281 395.695312 264.914062 395.695312 Z M 272.515625 406.175781 C 272.820312 406.328125 272.972656 406.328125 273.273438 406.480469 C 273.425781 406.328125 273.730469 406.175781 273.882812 406.023438 C 273.882812 406.023438 273.425781 405.875 273.121094 405.722656 C 272.972656 405.875 272.820312 406.023438 272.515625 406.175781 Z M 274.945312 409.671875 C 274.640625 409.671875 274.339844 409.519531 274.1875 409.519531 C 273.730469 409.519531 273.273438 409.671875 272.820312 409.671875 C 273.121094 409.671875 273.425781 409.824219 273.578125 409.824219 C 274.1875 409.824219 274.640625 409.671875 274.945312 409.671875 Z M 257.316406 416.507812 C 257.164062 416.355469 256.859375 416.203125 256.558594 416.050781 C 256.40625 416.203125 256.101562 416.203125 255.796875 416.355469 C 256.101562 416.507812 256.40625 416.660156 256.710938 416.808594 C 257.011719 416.660156 257.46875 416.660156 257.316406 416.507812 Z M 270.234375 416.507812 C 269.777344 416.507812 269.324219 416.355469 268.714844 416.203125 C 268.5625 416.203125 268.257812 416.355469 268.109375 416.355469 C 268.5625 416.507812 269.019531 416.507812 269.476562 416.660156 C 269.777344 416.660156 270.082031 416.660156 270.234375 416.507812 Z M 264.003906 423.039062 C 264.460938 423.039062 264.914062 422.886719 265.371094 422.886719 C 265.066406 422.886719 264.914062 422.734375 264.613281 422.582031 C 264.15625 422.734375 263.699219 422.734375 263.394531 422.886719 C 263.394531 422.886719 263.851562 423.039062 264.003906 423.039062 Z M 277.53125 423.191406 C 277.226562 423.039062 276.921875 422.886719 276.769531 422.734375 C 276.617188 422.886719 276.164062 422.886719 276.164062 423.039062 C 276.3125 423.191406 276.617188 423.34375 276.921875 423.492188 C 277.074219 423.339844 277.226562 423.191406 277.53125 423.191406 Z M 270.234375 424.859375 C 270.386719 425.011719 270.691406 425.164062 270.996094 425.316406 C 271.148438 425.164062 271.449219 425.164062 271.601562 425.011719 C 271.300781 424.859375 270.996094 424.707031 270.84375 424.558594 C 270.691406 424.859375 270.234375 424.859375 270.234375 424.859375 Z M 235.128906 287.242188 C 249.71875 318.988281 275.402344 354.988281 287.710938 333.417969 C 296.222656 318.378906 300.023438 211.140625 275.707031 123.644531 C 242.574219 71.695312 196.070312 14.734375 164.308594 9.113281 C 115.523438 0.609375 101.996094 18.226562 100.78125 69.875 C 99.566406 120.609375 119.625 299.390625 180.570312 346.175781 C 190.144531 336.457031 199.71875 317.316406 199.71875 287.242188 C 199.71875 233.46875 220.539062 255.492188 235.128906 287.242188 Z M 667.503906 69.875 C 666.285156 18.226562 652.914062 0.609375 603.976562 9.113281 C 572.515625 14.582031 526.46875 70.632812 493.335938 122.277344 C 468.71875 210.074219 472.515625 318.226562 481.027344 333.265625 C 493.183594 354.835938 518.871094 318.835938 533.460938 287.089844 C 548.046875 255.339844 568.871094 233.316406 568.871094 287.089844 C 568.871094 317.011719 578.292969 336 587.867188 345.722656 C 648.65625 298.9375 668.71875 120.457031 667.503906 69.875 Z M 279.050781 557.925781 C 279.050781 550.9375 275.402344 544.707031 270.082031 541.0625 C 270.996094 541.0625 271.90625 541.671875 272.058594 542.125 C 272.667969 543.644531 274.035156 544.101562 275.402344 544.101562 C 276.464844 544.101562 277.378906 544.40625 278.289062 544.859375 C 278.898438 545.164062 279.65625 545.46875 280.265625 545.773438 C 282.089844 546.53125 283.609375 547.898438 285.433594 548.507812 C 285.433594 548.507812 285.585938 548.660156 285.738281 548.808594 C 286.800781 550.023438 288.167969 550.9375 289.382812 552 C 291.054688 553.519531 292.878906 554.582031 294.398438 556.101562 C 294.550781 556.40625 294.550781 556.558594 294.703125 556.40625 C 297.285156 558.988281 299.109375 560.203125 300.480469 561.570312 C 300.933594 562.023438 301.542969 562.9375 301.390625 562.175781 C 301.238281 561.570312 299.566406 558.378906 298.957031 557.925781 C 297.894531 556.707031 296.527344 555.191406 295.765625 553.976562 C 295.3125 553.214844 294.855469 552.609375 294.398438 552 C 294.398438 551.847656 294.246094 551.542969 294.246094 551.542969 C 293.640625 550.027344 293.03125 548.050781 292.878906 546.683594 C 292.273438 542.582031 290.144531 538.785156 288.777344 534.835938 C 287.710938 533.316406 287.257812 530.886719 285.433594 529.976562 C 285.28125 529.976562 285.128906 529.519531 285.128906 529.367188 C 284.976562 528.152344 284.21875 527.390625 283.304688 526.785156 C 282.242188 525.875 281.328125 524.808594 280.722656 523.441406 C 280.113281 522.378906 279.503906 521.316406 278.289062 520.859375 C 277.835938 520.707031 277.378906 520.40625 277.074219 519.949219 C 275.097656 516.910156 271.90625 515.242188 268.867188 513.265625 C 267.957031 512.660156 266.890625 512.507812 265.980469 512.203125 C 264.914062 512.050781 264.003906 511.898438 263.09375 510.988281 C 261.421875 511.292969 259.75 510.835938 258.53125 510.074219 C 256.859375 509.164062 255.039062 508.707031 253.367188 508.558594 C 251.542969 508.558594 249.871094 508.558594 248.046875 508.707031 C 246.375 508.859375 244.398438 509.46875 242.878906 509.164062 C 239.992188 508.40625 237.863281 510.378906 235.433594 511.140625 C 233.609375 511.59375 231.632812 512.808594 229.960938 514.023438 C 227.984375 515.242188 225.707031 515.542969 223.578125 517.214844 C 221.148438 519.191406 219.476562 521.164062 217.804688 522.378906 C 217.652344 522.53125 217.195312 522.683594 217.195312 522.835938 C 217.195312 522.988281 218.105469 522.835938 219.324219 522.835938 C 220.539062 522.835938 222.058594 522.835938 222.820312 522.53125 C 224.1875 521.773438 226.617188 522.378906 227.53125 521.011719 C 227.53125 521.011719 227.683594 521.011719 227.683594 521.011719 C 229.503906 521.316406 231.023438 521.316406 232.242188 519.949219 C 232.394531 519.796875 232.695312 519.644531 233 519.644531 C 234.671875 519.339844 236.496094 519.796875 238.167969 519.339844 C 238.625 519.191406 238.625 519.796875 238.777344 519.949219 C 240.296875 520.558594 241.664062 521.164062 242.878906 519.644531 C 244.703125 520.101562 246.222656 519.644531 247.742188 518.429688 C 247.894531 518.277344 248.199219 518.429688 248.503906 518.429688 C 249.109375 518.582031 249.871094 518.277344 250.476562 518.277344 C 251.238281 518.277344 252.148438 517.972656 253.0625 517.824219 C 253.820312 517.671875 254.734375 517.519531 255.492188 517.824219 C 258.078125 518.734375 260.050781 519.796875 263.09375 519.492188 C 264.460938 519.492188 265.523438 520.101562 266.738281 520.859375 C 267.804688 521.621094 269.019531 522.226562 270.386719 522.53125 C 270.539062 522.53125 270.691406 522.683594 270.691406 522.835938 C 271.300781 524.203125 272.363281 524.65625 273.730469 524.960938 C 274.792969 525.113281 275.707031 526.175781 275.707031 526.785156 C 275.554688 528.457031 276.769531 529.367188 277.984375 529.824219 C 279.050781 530.277344 279.65625 530.886719 280.417969 531.644531 C 280.875 532.253906 281.480469 532.707031 281.9375 533.164062 C 283.304688 534.683594 284.066406 536.507812 285.738281 537.722656 C 285.738281 537.722656 285.890625 538.023438 285.890625 538.023438 C 286.34375 539.542969 287.410156 540.910156 288.015625 542.429688 C 288.929688 544.253906 290.144531 545.925781 290.902344 547.746094 C 289.839844 546.683594 288.625 545.621094 287.710938 544.40625 C 286.039062 543.492188 284.824219 541.367188 282.847656 541.214844 C 282.699219 541.214844 282.394531 540.910156 282.394531 540.757812 C 281.785156 539.695312 280.722656 539.390625 279.65625 539.089844 C 278.289062 538.632812 277.074219 538.023438 276.011719 537.113281 C 275.097656 536.355469 274.035156 535.746094 272.820312 535.746094 C 272.363281 535.746094 271.753906 535.59375 271.300781 535.292969 C 268.410156 533.316406 264.613281 533.011719 261.269531 532.253906 C 260.203125 532.101562 259.140625 532.253906 258.230469 532.40625 C 257.164062 532.707031 256.253906 532.859375 255.191406 532.40625 C 253.820312 533.316406 252.148438 533.621094 250.628906 533.316406 C 248.804688 533.011719 246.984375 533.316406 245.3125 533.925781 C 243.640625 534.53125 241.96875 535.292969 240.449219 536.050781 C 238.929688 536.808594 237.40625 538.175781 235.886719 538.328125 C 233 538.785156 231.632812 541.367188 229.808594 543.039062 C 228.289062 544.253906 226.921875 545.925781 225.859375 547.746094 C 224.640625 549.570312 222.515625 550.785156 221.296875 553.214844 C 219.777344 555.949219 219.019531 558.378906 217.804688 560.203125 C 217.652344 560.507812 217.347656 560.808594 217.347656 560.808594 C 217.347656 560.960938 218.105469 560.507812 219.324219 560.050781 C 220.386719 559.59375 221.753906 558.988281 222.363281 558.378906 C 223.425781 557.164062 225.707031 556.707031 226.160156 555.191406 C 226.160156 555.191406 226.3125 555.191406 226.3125 555.191406 C 228.136719 554.886719 229.503906 554.125 230.113281 552.457031 C 230.265625 552.152344 230.417969 552 230.722656 551.847656 C 232.242188 550.9375 234.066406 550.632812 235.433594 549.570312 C 235.886719 549.265625 236.039062 549.722656 236.34375 549.875 C 238.015625 549.875 239.535156 549.875 239.992188 548.050781 C 241.207031 547.898438 242.121094 547.441406 242.878906 546.683594 C 240.601562 550.023438 239.230469 553.976562 239.230469 558.226562 C 239.230469 569.46875 248.351562 578.582031 259.597656 578.582031 C 269.929688 578.429688 279.050781 569.316406 279.050781 557.925781 Z M 235.433594 549.722656 Z M 238.472656 519.644531 Z M 538.472656 538.785156 Z M 551.847656 555.039062 C 551.390625 553.824219 550.9375 552.457031 550.328125 551.847656 C 549.71875 551.242188 549.265625 550.480469 548.808594 549.722656 C 548.199219 548.960938 547.746094 548.203125 546.832031 548.050781 C 546.832031 548.050781 546.679688 547.898438 546.679688 547.898438 C 546.226562 545.925781 545.160156 544.558594 543.1875 544.253906 C 542.882812 544.253906 542.578125 543.949219 542.425781 543.796875 C 541.210938 542.429688 540.144531 540.757812 538.472656 539.695312 C 538.019531 539.390625 538.472656 539.089844 538.472656 538.785156 C 537.714844 537.113281 536.652344 535.59375 534.675781 536.050781 C 533.308594 534.226562 531.179688 533.773438 529.050781 533.925781 C 528.746094 533.925781 528.597656 533.621094 528.292969 533.46875 C 527.683594 533.011719 526.773438 533.011719 526.011719 532.859375 C 525.101562 532.558594 524.035156 532.40625 523.125 532.40625 C 522.0625 532.40625 521.148438 532.253906 520.390625 531.949219 C 517.652344 530.582031 514.765625 529.519531 511.421875 530.582031 C 510.054688 531.039062 508.535156 530.886719 506.863281 530.734375 C 505.34375 530.734375 503.671875 530.734375 502.304688 531.644531 C 502.152344 531.644531 502 531.644531 501.847656 531.644531 C 500.328125 531.039062 498.960938 531.796875 497.59375 532.710938 C 496.679688 533.316406 495.3125 533.925781 494.703125 533.46875 C 493.035156 532.558594 491.511719 533.621094 490.449219 534.683594 C 489.539062 535.59375 488.929688 536.203125 487.714844 536.808594 C 487.105469 537.113281 486.5 537.722656 485.890625 538.328125 C 484.21875 539.542969 482.242188 540.609375 481.179688 542.429688 C 481.179688 542.429688 480.875 542.582031 480.722656 542.582031 C 479.660156 543.191406 478.746094 543.949219 477.835938 544.859375 C 477.988281 544.558594 478.140625 544.101562 478.292969 543.949219 C 480.570312 540.609375 481.9375 536.808594 484.523438 533.925781 C 485.28125 532.253906 487.105469 531.191406 487.410156 529.367188 C 487.410156 529.214844 487.714844 529.0625 487.867188 528.910156 C 488.929688 528.457031 489.386719 527.695312 489.839844 526.9375 C 490.449219 525.722656 491.363281 524.960938 492.578125 524.507812 C 493.640625 524.050781 494.554688 523.59375 495.007812 522.53125 C 495.160156 522.226562 495.617188 521.773438 496.074219 521.773438 C 498.960938 520.859375 501.390625 519.34375 504.128906 518.582031 C 504.886719 518.429688 505.648438 517.976562 506.253906 517.519531 C 507.015625 517.214844 507.621094 516.757812 508.6875 517.0625 C 509.597656 515.847656 511.117188 515.847656 512.335938 516.152344 C 513.855469 516.609375 515.222656 516.609375 516.589844 516.457031 C 517.957031 516.457031 519.324219 516.152344 520.84375 516.152344 C 522.210938 516.304688 523.882812 515.695312 525.101562 516.457031 C 526.164062 517.214844 527.226562 517.214844 528.292969 517.0625 C 529.355469 516.910156 530.570312 516.757812 531.636719 516.910156 C 533.308594 517.0625 535.28125 517.214844 537.257812 517.0625 C 539.386719 516.910156 541.210938 518.429688 543.792969 518.277344 C 546.832031 518.277344 549.265625 518.429688 551.390625 518.886719 C 551.695312 518.886719 552.152344 519.039062 552.152344 519.039062 C 552.304688 519.039062 551.542969 518.429688 550.785156 517.519531 C 549.871094 516.609375 548.960938 515.542969 548.199219 515.242188 C 547.441406 514.9375 546.679688 514.328125 545.921875 513.875 C 545.160156 513.417969 544.402344 512.960938 543.488281 513.113281 C 543.488281 513.113281 543.335938 512.960938 543.335938 512.960938 C 542.121094 511.441406 540.601562 510.53125 538.777344 510.988281 C 538.472656 510.988281 538.171875 510.988281 537.867188 510.835938 C 536.195312 510.074219 534.523438 508.859375 532.699219 508.558594 C 532.089844 508.40625 532.394531 507.949219 532.394531 507.644531 C 531.027344 506.429688 529.507812 505.367188 527.835938 506.582031 C 525.859375 505.367188 523.882812 505.824219 521.910156 506.734375 C 521.757812 506.886719 521.300781 506.734375 521.148438 506.582031 C 520.390625 506.277344 519.628906 506.886719 518.871094 506.886719 C 517.804688 506.886719 516.894531 507.191406 515.980469 507.492188 C 515.070312 507.796875 514.15625 508.101562 513.246094 508.101562 C 510.207031 507.949219 507.167969 508.101562 504.429688 510.378906 C 503.214844 511.441406 501.847656 511.746094 500.328125 512.203125 C 498.960938 512.808594 497.289062 513.417969 496.375 514.785156 C 496.375 514.9375 496.074219 514.9375 495.921875 514.9375 C 494.25 514.9375 493.183594 516.152344 492.425781 517.519531 C 491.816406 518.429688 490.753906 519.492188 490.144531 519.34375 C 488.320312 519.191406 487.257812 520.558594 486.648438 522.074219 C 486.195312 523.292969 485.738281 524.050781 484.976562 524.960938 C 484.523438 525.570312 484.21875 526.328125 483.761719 526.9375 C 482.699219 528.757812 481.332031 530.429688 480.875 532.558594 C 480.875 532.558594 480.722656 532.710938 480.570312 532.859375 C 479.507812 534.074219 478.898438 535.898438 478.140625 537.417969 C 477.074219 539.542969 476.921875 541.824219 476.164062 543.796875 C 475.707031 545.46875 475.402344 546.683594 475.25 547.898438 C 474.492188 548.960938 473.730469 550.027344 472.972656 550.9375 C 470.539062 553.976562 469.628906 556.253906 468.867188 557.925781 C 468.566406 558.53125 468.109375 559.441406 468.566406 558.988281 C 469.019531 558.53125 471.453125 556.101562 471.910156 555.492188 C 472.667969 554.277344 474.035156 552.910156 474.949219 552 C 474.949219 552.609375 474.796875 553.214844 475.101562 552.761719 C 475.253906 552.609375 475.402344 552 475.554688 551.542969 C 478.746094 549.265625 481.332031 546.53125 484.675781 545.011719 C 486.042969 543.796875 488.171875 543.492188 489.082031 541.976562 C 489.082031 541.976562 489.539062 541.824219 489.691406 541.824219 C 490.753906 541.824219 491.511719 541.367188 492.273438 540.609375 C 493.183594 539.695312 494.402344 539.394531 495.769531 539.394531 C 496.074219 539.394531 496.226562 539.394531 496.527344 539.394531 C 492.425781 543.191406 489.839844 548.507812 489.839844 554.429688 C 489.839844 565.671875 498.960938 574.785156 510.207031 574.785156 C 521.453125 574.785156 530.570312 565.671875 530.570312 554.429688 C 530.570312 550.175781 529.355469 546.378906 527.074219 543.191406 C 527.683594 543.492188 528.140625 543.796875 528.445312 544.253906 C 529.203125 545.316406 530.117188 545.773438 531.179688 546.078125 C 532.242188 546.378906 533.308594 546.683594 534.371094 547.292969 C 535.890625 548.050781 537.5625 548.960938 539.539062 549.570312 C 541.664062 550.175781 542.730469 552.304688 545.160156 553.214844 C 547.898438 554.429688 550.175781 555.492188 551.847656 556.710938 C 552 556.859375 552.457031 557.164062 552.457031 557.164062 C 552.609375 557.011719 552.152344 556.253906 551.847656 555.039062 Z M 532.089844 507.339844 Z M 508.6875 516.757812 Z M 383.914062 668.507812 C 375.402344 666.835938 351.542969 646.480469 340.296875 662.277344 C 340.296875 662.277344 358.382812 710.277344 392.726562 697.214844 C 427.074219 684.152344 427.226562 658.175781 425.402344 655.140625 C 423.730469 652.40625 392.425781 670.175781 383.914062 668.507812 Z M 399.871094 481.671875 C 399.871094 482.734375 400.023438 483.949219 400.785156 482.125 C 401.085938 481.367188 401.695312 479.847656 401.695312 479.390625 C 401.695312 477.722656 401.390625 476.507812 401.238281 474.988281 C 401.238281 474.378906 401.390625 472.558594 401.542969 472.558594 C 402 471.949219 402.605469 471.492188 403.0625 471.339844 C 404.277344 470.886719 403.519531 473.46875 403.0625 475.292969 C 402.910156 476.050781 403.0625 477.417969 403.0625 477.417969 C 403.671875 476.808594 404.429688 476.050781 405.039062 475.140625 C 405.039062 474.988281 405.191406 473.773438 405.191406 473.164062 C 405.191406 471.191406 405.191406 469.0625 405.039062 467.089844 C 405.039062 466.175781 404.734375 465.722656 404.429688 464.808594 C 403.824219 465.722656 403.214844 466.328125 402.757812 467.089844 C 402 468.609375 401.542969 470.582031 400.785156 472.101562 C 400.175781 473.621094 399.261719 474.683594 399.71875 476.507812 C 400.175781 477.417969 399.871094 479.847656 399.871094 481.671875 Z M 359.140625 476.660156 C 359.902344 476.660156 360.507812 476.507812 361.421875 474.683594 C 362.636719 471.949219 361.574219 471.796875 361.574219 470.582031 C 361.574219 468.757812 361.269531 467.242188 361.117188 465.570312 C 361.117188 465.265625 360.964844 464.960938 360.8125 464.808594 C 360.507812 465.417969 360.355469 466.023438 360.207031 466.480469 C 359.75 468.304688 358.988281 470.429688 360.054688 470.734375 C 360.8125 470.886719 360.355469 472.707031 359.445312 474.378906 C 358.988281 475.292969 357.621094 476.660156 359.140625 476.660156 Z M 408.839844 483.191406 C 409.597656 481.671875 410.359375 480.152344 411.878906 477.265625 C 411.878906 477.265625 411.726562 477.265625 411.574219 477.265625 C 411.878906 476.960938 412.179688 476.203125 412.484375 475.898438 C 413.398438 474.835938 414.765625 474.53125 414.003906 471.644531 C 413.703125 470.277344 413.550781 468.457031 413.398438 466.785156 C 413.398438 466.175781 413.246094 465.722656 413.09375 465.113281 C 412.484375 466.328125 411.726562 467.089844 411.421875 468.152344 C 411.117188 468.910156 411.117188 470.886719 411.269531 470.886719 C 412.484375 470.734375 412.941406 471.191406 411.878906 475.140625 C 411.574219 476.203125 411.421875 476.808594 411.421875 477.113281 C 410.660156 476.960938 410.359375 476.808594 409.902344 477.265625 C 409.597656 477.570312 408.6875 479.390625 408.6875 479.695312 C 408.535156 481.214844 408.6875 482.125 408.839844 483.191406 Z M 425.402344 481.824219 C 425.25 482.429688 425.25 483.039062 425.25 483.796875 C 426.011719 482.277344 426.769531 480.910156 427.378906 479.242188 C 427.53125 478.9375 427.378906 478.023438 427.226562 476.355469 C 426.46875 478.785156 425.859375 480.304688 425.402344 481.824219 Z M 423.429688 480 C 423.730469 478.9375 423.730469 477.722656 423.730469 476.203125 C 422.363281 478.632812 421.605469 479.847656 421.453125 480.609375 C 421.300781 481.671875 421.605469 482.582031 421.757812 483.492188 C 422.210938 482.429688 422.972656 481.367188 423.429688 480 Z M 435.738281 474.683594 C 435.585938 473.925781 435.738281 473.164062 435.433594 472.707031 C 435.28125 472.40625 434.976562 472.40625 434.675781 472.707031 C 434.21875 473.164062 433.914062 473.925781 433.15625 475.140625 C 433.761719 475.292969 434.066406 475.59375 434.523438 475.59375 C 434.976562 475.59375 435.433594 474.988281 435.738281 474.683594 Z M 383.003906 467.847656 C 382.851562 466.9375 383.003906 465.113281 382.699219 465.265625 C 382.089844 465.570312 381.480469 466.785156 380.875 467.695312 C 381.027344 468.152344 381.332031 468.457031 381.480469 469.0625 C 381.9375 468.609375 382.546875 468.304688 383.003906 467.847656 Z M 435.128906 468.609375 C 434.976562 468.304688 434.824219 467.695312 434.675781 467.695312 C 434.21875 467.847656 433.609375 468.457031 433.003906 468.910156 C 433.003906 469.824219 433.003906 471.492188 433.304688 471.492188 C 433.609375 471.492188 434.371094 469.824219 435.128906 468.609375 Z M 416.894531 461.164062 C 416.894531 460.40625 416.742188 459.796875 416.589844 458.734375 C 416.132812 460.40625 415.675781 461.621094 415.523438 462.683594 C 415.371094 463.59375 415.371094 464.355469 415.222656 465.265625 C 415.675781 464.507812 416.132812 464.050781 416.4375 463.140625 C 416.589844 462.683594 416.894531 461.773438 416.894531 461.164062 Z M 415.523438 466.9375 C 415.828125 468 415.828125 468.910156 416.132812 469.214844 C 416.285156 469.367188 416.894531 468.304688 417.195312 467.847656 C 417.195312 466.9375 417.195312 466.023438 417.042969 465.417969 C 416.894531 465.113281 416.285156 466.023438 415.523438 466.9375 Z M 407.925781 461.011719 C 408.078125 460.558594 408.078125 459.644531 408.078125 457.976562 C 407.316406 459.339844 406.863281 460.101562 406.558594 461.011719 C 406.40625 461.46875 406.558594 462.378906 406.558594 462.988281 C 407.015625 462.378906 407.46875 461.925781 407.925781 461.011719 Z M 407.167969 471.039062 C 407.621094 469.824219 408.078125 468.457031 408.535156 467.242188 C 408.6875 466.632812 408.6875 466.023438 408.6875 465.417969 C 407.925781 466.632812 407.46875 467.390625 406.863281 468.304688 Z M 446.832031 474.53125 C 446.984375 474.988281 447.136719 475.746094 447.441406 475.898438 C 447.742188 475.898438 448.351562 475.140625 448.808594 474.683594 C 448.65625 473.773438 448.65625 472.859375 448.503906 471.644531 Z M 373.277344 476.808594 C 373.882812 475.898438 374.644531 474.835938 374.796875 474.226562 C 374.945312 473.011719 374.796875 471.949219 374.644531 470.886719 C 374.339844 471.644531 374.035156 472.40625 373.578125 473.46875 C 373.578125 474.53125 373.425781 475.59375 373.277344 476.808594 Z M 378.289062 468.304688 C 378.441406 468.152344 378.289062 467.089844 378.289062 466.175781 C 377.53125 466.9375 377.074219 467.242188 376.46875 467.695312 C 376.617188 468.609375 376.46875 469.976562 376.769531 470.277344 C 377.074219 470.429688 377.835938 469.0625 378.289062 468.304688 Z M 433.914062 483.796875 C 434.21875 483.039062 434.523438 482.277344 434.976562 481.367188 C 435.128906 480.152344 435.28125 479.089844 435.433594 477.875 C 435.128906 478.632812 434.675781 479.242188 434.523438 479.847656 C 434.21875 481.214844 434.21875 482.582031 433.914062 483.796875 Z M 443.03125 480.910156 C 443.335938 481.214844 443.488281 482.125 443.640625 481.824219 C 444.097656 481.0625 444.402344 480 444.855469 478.9375 C 444.855469 478.9375 444.703125 478.480469 444.550781 478.328125 C 444.097656 479.242188 443.488281 480.152344 443.03125 480.910156 Z M 364.15625 468.457031 C 364.613281 468.457031 365.21875 467.847656 365.675781 467.542969 C 365.523438 467.089844 365.21875 466.785156 365.070312 466.175781 C 364.613281 466.632812 364.003906 467.089844 363.550781 467.542969 C 363.699219 467.847656 364.003906 468.457031 364.15625 468.457031 Z M 381.785156 473.621094 C 381.9375 474.074219 382.089844 474.988281 382.089844 474.988281 C 382.546875 474.226562 383.003906 473.46875 383.457031 472.558594 C 383.609375 472.253906 383.457031 471.644531 383.457031 470.886719 C 382.851562 471.644531 382.394531 472.707031 381.785156 473.621094 Z M 377.53125 474.835938 C 377.988281 474.378906 378.441406 473.621094 378.898438 472.859375 C 378.898438 472.707031 378.898438 471.796875 378.898438 471.191406 C 378.289062 472.101562 377.835938 473.011719 377.226562 473.925781 C 377.378906 474.226562 377.378906 474.835938 377.53125 474.835938 Z M 356.710938 480.609375 C 357.164062 480.457031 357.46875 479.695312 357.773438 479.390625 C 358.230469 477.875 358.382812 477.265625 358.382812 476.660156 L 356.40625 479.242188 C 356.558594 479.542969 356.558594 480.609375 356.710938 480.609375 Z M 404.125 481.214844 C 404.582031 480.757812 405.191406 480.457031 405.496094 479.695312 C 405.648438 479.390625 405.648438 478.175781 405.796875 477.265625 C 405.191406 478.175781 404.734375 479.089844 404.125 480 C 404.125 480.457031 404.125 481.214844 404.125 481.214844 Z M 372.515625 468.609375 C 372.820312 468.457031 373.277344 468 373.578125 467.695312 C 373.578125 467.390625 373.425781 466.785156 373.277344 466.785156 C 372.972656 466.785156 372.515625 467.242188 372.058594 467.542969 C 372.363281 468 372.363281 468.609375 372.515625 468.609375 Z M 370.082031 473.621094 C 370.386719 472.707031 370.386719 471.796875 370.691406 470.734375 C 370.234375 471.191406 369.933594 471.492188 369.933594 471.796875 C 369.78125 472.707031 369.628906 473.621094 369.476562 474.378906 C 369.628906 474.074219 369.933594 473.925781 370.082031 473.621094 Z M 364.765625 458.277344 C 364.460938 458.734375 364.308594 459.339844 363.851562 460.101562 C 363.699219 460.859375 363.699219 461.621094 363.699219 462.378906 C 364.003906 461.925781 364.308594 461.316406 364.460938 460.859375 C 364.613281 460.101562 364.613281 459.191406 364.765625 458.277344 Z M 344.398438 470.582031 C 344.097656 471.191406 343.792969 471.644531 343.488281 472.253906 C 343.335938 472.707031 343.335938 473.316406 343.335938 473.925781 C 343.640625 473.621094 343.945312 473.316406 344.097656 473.164062 C 344.398438 471.644531 344.398438 471.191406 344.398438 470.582031 Z M 451.847656 475.292969 C 451.847656 475.292969 452.304688 475.441406 452.304688 475.292969 C 452.605469 474.378906 452.757812 473.46875 453.0625 472.40625 C 452.757812 472.40625 452.457031 472.40625 452.457031 472.558594 C 452.152344 473.46875 452 474.378906 451.847656 475.292969 Z M 451.390625 460.101562 C 451.085938 460.707031 450.785156 461.164062 450.480469 461.773438 C 450.328125 462.226562 450.328125 462.835938 450.328125 463.441406 C 450.632812 463.140625 450.9375 462.835938 451.085938 462.683594 C 451.390625 461.164062 451.390625 460.707031 451.390625 460.101562 Z M 404.582031 458.734375 C 404.277344 459.492188 403.824219 460.101562 403.824219 460.558594 C 403.671875 461.46875 403.671875 462.226562 403.519531 463.140625 C 403.824219 462.683594 404.125 462.074219 404.277344 461.621094 C 404.429688 460.707031 404.429688 459.796875 404.582031 458.734375 Z M 395.921875 464.660156 C 395.617188 465.417969 395.160156 466.023438 395.160156 466.480469 C 395.007812 467.390625 395.007812 468.152344 394.855469 469.0625 C 395.160156 468.609375 395.464844 468 395.617188 467.542969 C 395.617188 466.632812 395.769531 465.722656 395.921875 464.660156 Z M 392.121094 471.039062 C 391.816406 471.492188 391.664062 472.101562 391.207031 472.859375 C 391.207031 473.621094 391.058594 474.378906 391.058594 475.140625 C 391.359375 474.683594 391.664062 474.074219 391.816406 473.621094 C 391.96875 472.707031 391.96875 471.796875 392.121094 471.039062 Z M 387.410156 473.925781 C 387.714844 473.011719 387.867188 472.101562 388.015625 471.039062 C 387.5625 471.492188 387.257812 471.796875 387.257812 472.101562 C 387.105469 473.011719 386.953125 473.925781 386.800781 474.683594 C 386.953125 474.378906 387.257812 474.074219 387.410156 473.925781 Z M 385.585938 468.757812 C 385.890625 468.757812 386.34375 468.152344 386.648438 467.847656 C 386.496094 467.542969 386.496094 467.242188 386.34375 466.632812 C 386.042969 466.9375 385.585938 467.390625 385.28125 467.847656 C 385.28125 468.152344 385.433594 468.757812 385.585938 468.757812 Z M 379.050781 480.609375 C 379.355469 479.695312 379.660156 478.9375 379.960938 477.875 C 379.960938 477.722656 379.808594 477.265625 379.660156 476.808594 C 379.355469 477.875 379.050781 478.785156 378.898438 479.695312 C 378.746094 480.152344 378.898438 480.304688 379.050781 480.609375 Z M 370.386719 480.457031 C 370.539062 480 370.84375 479.242188 370.996094 478.785156 C 371.148438 478.175781 370.996094 477.570312 370.996094 476.960938 C 370.691406 477.570312 370.539062 478.023438 369.933594 479.695312 C 370.082031 479.847656 370.234375 480.152344 370.386719 480.457031 Z M 418.714844 479.542969 C 418.867188 478.9375 418.714844 478.328125 418.714844 477.875 C 418.566406 478.480469 418.261719 478.9375 417.652344 480.457031 C 417.804688 480.609375 417.957031 480.910156 418.109375 481.214844 C 418.261719 480.757812 418.566406 480 418.714844 479.542969 Z M 340.296875 478.632812 C 340.144531 478.785156 339.839844 479.089844 339.6875 479.242188 C 339.6875 479.542969 339.6875 479.695312 339.6875 480 C 339.839844 479.695312 340.144531 479.542969 340.296875 479.242188 C 340.449219 479.089844 340.449219 478.632812 340.296875 478.632812 Z M 343.335938 467.089844 C 343.183594 466.785156 343.183594 466.480469 343.03125 466.480469 C 343.03125 466.480469 342.726562 466.9375 342.574219 467.089844 C 342.726562 467.242188 342.726562 467.542969 342.878906 467.847656 C 343.03125 467.542969 343.183594 467.390625 343.335938 467.089844 Z M 344.097656 480.457031 C 344.246094 480.304688 344.398438 480 344.550781 479.695312 C 344.550781 479.242188 344.550781 478.785156 344.550781 478.480469 C 344.398438 478.785156 344.246094 478.9375 344.097656 479.089844 C 344.246094 479.542969 344.246094 480 344.097656 480.457031 Z M 347.589844 466.175781 C 347.4375 466.328125 347.289062 466.632812 347.136719 466.9375 C 347.136719 467.390625 347.136719 467.847656 347.136719 468.304688 C 347.289062 468 347.4375 467.847656 347.589844 467.695312 C 347.4375 467.089844 347.589844 466.632812 347.589844 466.175781 Z M 348.960938 478.480469 C 348.808594 478.632812 348.65625 478.9375 348.503906 479.242188 C 348.503906 479.695312 348.503906 480.152344 348.503906 480.609375 C 348.65625 480.304688 348.808594 480.152344 348.960938 480 C 348.960938 479.390625 348.960938 478.9375 348.960938 478.480469 Z M 353.519531 479.542969 C 353.519531 479.242188 353.519531 478.9375 353.367188 478.9375 C 353.214844 479.089844 352.910156 479.390625 352.757812 479.542969 C 352.757812 479.847656 352.757812 480 352.757812 480.304688 C 353.0625 480 353.214844 479.695312 353.519531 479.542969 Z M 357.015625 473.46875 C 357.015625 473.164062 357.015625 472.859375 356.863281 472.859375 C 356.710938 473.011719 356.40625 473.316406 356.253906 473.46875 C 356.253906 473.773438 356.253906 474.074219 356.40625 474.074219 C 356.558594 474.074219 356.863281 473.621094 357.015625 473.46875 Z M 361.421875 480.304688 C 361.574219 480.152344 361.878906 479.847656 362.027344 479.695312 C 362.027344 479.390625 362.027344 479.242188 362.027344 478.9375 C 361.878906 479.242188 361.574219 479.390625 361.421875 479.695312 C 361.421875 479.847656 361.421875 480.304688 361.421875 480.304688 Z M 365.828125 480.457031 C 365.980469 480.304688 366.285156 480 366.4375 479.695312 C 366.4375 479.542969 366.4375 478.9375 366.285156 479.089844 C 366.132812 479.242188 365.828125 479.542969 365.675781 479.695312 C 365.675781 480 365.675781 480.152344 365.828125 480.457031 Z M 369.324219 467.542969 C 369.171875 467.390625 369.171875 467.089844 369.019531 466.785156 C 368.867188 467.089844 368.714844 467.242188 368.5625 467.542969 C 368.714844 467.847656 368.714844 468 368.867188 468.152344 C 369.019531 468.304688 369.171875 467.847656 369.324219 467.542969 Z M 402.605469 455.542969 C 402.605469 455.390625 402.605469 455.089844 402.453125 454.785156 C 402.304688 455.242188 402 455.695312 401.847656 456.152344 C 401.847656 456.304688 401.847656 456.609375 401.847656 456.757812 C 402.152344 456.457031 402.453125 456 402.605469 455.542969 Z M 381.632812 461.621094 C 381.480469 461.316406 381.480469 461.011719 381.332031 461.011719 C 381.332031 461.011719 381.027344 461.46875 380.875 461.621094 C 381.027344 461.773438 381.027344 462.074219 381.179688 462.378906 C 381.332031 462.074219 381.480469 461.925781 381.632812 461.621094 Z M 385.128906 460.707031 C 384.976562 460.859375 384.824219 461.164062 384.671875 461.316406 C 384.671875 461.773438 384.671875 462.226562 384.523438 462.683594 C 384.671875 462.53125 384.824219 462.226562 384.976562 462.074219 C 385.128906 461.621094 385.128906 461.164062 385.128906 460.707031 Z M 387.410156 480 C 387.410156 480.304688 387.410156 480.457031 387.410156 480.757812 C 387.5625 480.457031 387.867188 480.304688 388.015625 480 C 388.015625 479.695312 388.015625 479.390625 387.863281 479.390625 C 387.863281 479.542969 387.5625 479.847656 387.410156 480 Z M 391.058594 467.542969 C 391.058594 467.242188 391.058594 467.089844 390.90625 466.785156 C 390.753906 467.242188 390.449219 467.695312 390.296875 468.152344 C 390.296875 468.304688 390.296875 468.609375 390.296875 468.757812 C 390.601562 468.457031 390.753906 468 391.058594 467.542969 Z M 395.464844 475.140625 C 395.617188 474.988281 395.769531 474.683594 395.921875 474.53125 C 395.921875 474.074219 395.921875 473.621094 395.921875 473.164062 C 395.769531 473.316406 395.617188 473.621094 395.464844 473.925781 C 395.464844 474.226562 395.464844 474.683594 395.464844 475.140625 Z M 398.960938 461.925781 C 398.960938 461.621094 398.960938 461.46875 398.960938 461.164062 C 398.808594 461.46875 398.503906 461.621094 398.351562 461.925781 C 398.351562 462.226562 398.351562 462.53125 398.503906 462.53125 C 398.503906 462.53125 398.808594 462.226562 398.960938 461.925781 Z M 399.113281 468.609375 C 399.261719 468.457031 399.566406 468.152344 399.71875 468 C 399.71875 467.695312 399.71875 467.542969 399.71875 467.242188 C 399.566406 467.542969 399.261719 467.695312 399.113281 468 C 398.960938 468.304688 398.960938 468.757812 399.113281 468.609375 Z M 451.085938 469.214844 C 451.085938 469.367188 451.085938 469.671875 451.085938 469.824219 C 451.238281 469.367188 451.542969 468.910156 451.695312 468.457031 C 451.695312 468.152344 451.695312 468 451.542969 467.695312 C 451.390625 468.304688 451.085938 468.757812 451.085938 469.214844 Z M 430.875 475.746094 C 431.027344 475.59375 431.179688 475.292969 431.332031 475.140625 C 431.332031 474.683594 431.332031 474.226562 431.332031 473.773438 C 431.179688 473.925781 431.027344 474.226562 430.875 474.53125 C 430.875 474.835938 430.875 475.292969 430.875 475.746094 Z M 437.257812 468.910156 C 437.257812 469.214844 437.257812 469.367188 437.257812 469.671875 C 437.410156 469.214844 437.714844 468.757812 437.867188 468.304688 C 437.867188 468.152344 437.867188 467.847656 437.867188 467.695312 C 437.714844 468.152344 437.5625 468.609375 437.257812 468.910156 Z M 435.738281 486.988281 C 435.738281 487.140625 435.738281 487.441406 435.738281 487.746094 C 435.890625 487.59375 436.195312 487.292969 436.347656 486.988281 C 436.347656 486.835938 436.347656 486.378906 436.195312 486.378906 C 436.195312 486.378906 436.042969 486.683594 435.738281 486.988281 Z M 439.386719 480.910156 C 439.386719 481.214844 439.386719 481.519531 439.539062 481.519531 C 439.6875 481.367188 439.992188 481.0625 440.144531 480.910156 C 440.144531 480.757812 440.144531 480.457031 439.992188 480.152344 C 439.839844 480.457031 439.6875 480.609375 439.386719 480.910156 Z M 448.046875 468.457031 C 448.046875 468.304688 448.046875 468 448.046875 467.847656 C 447.894531 468.304688 447.59375 468.757812 447.441406 469.214844 C 447.441406 469.519531 447.441406 469.671875 447.441406 469.976562 C 447.742188 469.367188 447.894531 468.910156 448.046875 468.457031 Z M 317.652344 727.746094 C 318.410156 727.59375 319.171875 727.441406 319.628906 727.59375 C 320.84375 728.050781 318.714844 729.570312 317.347656 730.785156 C 316.738281 731.390625 315.980469 732.457031 316.132812 732.457031 C 317.042969 732.304688 318.109375 732.152344 319.171875 731.695312 C 319.324219 731.695312 320.234375 730.632812 320.539062 730.175781 C 321.753906 728.507812 322.972656 726.835938 324.035156 725.164062 C 324.492188 724.40625 324.644531 723.949219 324.945312 722.886719 C 323.882812 723.339844 323.125 723.339844 322.210938 723.796875 C 320.691406 724.707031 319.171875 725.925781 317.652344 726.683594 C 316.132812 727.59375 314.917969 727.898438 314.15625 729.570312 C 313.546875 730.785156 312.027344 732.457031 310.964844 733.976562 C 310.355469 734.886719 309.75 735.796875 311.421875 734.734375 C 312.179688 734.277344 313.546875 733.519531 313.699219 733.0625 C 314.613281 731.695312 315.066406 730.632812 315.980469 729.265625 C 316.285156 729.113281 317.5 727.898438 317.652344 727.746094 Z M 289.230469 697.671875 C 288.625 697.976562 288.167969 698.277344 287.710938 698.734375 C 286.34375 699.949219 284.367188 701.164062 285.128906 702.074219 C 285.585938 702.683594 284.21875 703.898438 282.546875 704.660156 C 281.480469 705.265625 279.65625 705.570312 280.875 706.480469 C 281.480469 706.9375 282.089844 707.242188 283.914062 706.175781 C 286.496094 704.808594 285.890625 703.898438 286.496094 702.988281 C 287.558594 701.46875 288.320312 700.101562 288.929688 698.734375 C 289.230469 698.125 289.230469 697.824219 289.230469 697.671875 Z M 326.164062 732.304688 C 327.226562 732.757812 327.378906 733.519531 324.035156 736.101562 C 323.125 736.859375 322.667969 737.164062 322.515625 737.46875 C 322.058594 737.011719 321.753906 736.707031 321.300781 736.707031 C 320.84375 736.707031 319.171875 737.621094 318.867188 737.925781 C 318.109375 738.988281 317.652344 739.898438 317.042969 740.808594 C 318.5625 740.050781 320.082031 739.292969 322.820312 737.773438 C 322.820312 737.773438 322.667969 737.621094 322.667969 737.621094 C 323.125 737.46875 323.882812 737.164062 324.1875 737.011719 C 325.554688 736.707031 326.769531 737.316406 327.835938 734.429688 C 328.289062 733.214844 329.507812 731.542969 330.265625 730.175781 C 330.570312 729.722656 330.722656 729.265625 331.027344 728.65625 C 329.808594 729.265625 328.746094 729.570312 327.835938 730.175781 C 327.226562 730.632812 326.011719 732.304688 326.164062 732.304688 Z M 306.710938 711.039062 C 306.101562 710.886719 304.734375 711.644531 303.820312 711.949219 C 303.671875 712.40625 303.671875 712.859375 303.519531 713.46875 C 304.125 713.46875 304.886719 713.46875 305.492188 713.316406 C 305.796875 712.40625 307.011719 711.039062 306.710938 711.039062 Z M 323.125 729.875 C 324.1875 729.113281 325.402344 728.355469 326.464844 727.59375 C 326.921875 727.292969 327.226562 726.683594 327.683594 726.226562 C 326.464844 726.683594 325.402344 727.140625 324.492188 727.441406 Z M 296.984375 710.734375 C 296.222656 711.191406 295.464844 711.644531 294.550781 712.253906 C 293.792969 713.011719 293.03125 713.925781 292.273438 714.835938 C 293.183594 714.378906 294.550781 714.074219 295.007812 713.621094 C 295.917969 712.558594 296.375 711.644531 296.984375 710.734375 Z M 299.109375 711.644531 C 299.109375 711.949219 300.628906 711.191406 301.390625 710.886719 C 301.542969 710.886719 302.148438 709.824219 302.605469 709.214844 C 301.542969 709.367188 300.933594 709.367188 300.175781 709.519531 C 299.71875 710.125 298.957031 711.191406 299.109375 711.644531 Z M 289.839844 702.683594 C 290.296875 702.835938 291.054688 702.683594 291.511719 702.835938 C 291.664062 702.378906 291.664062 701.925781 291.816406 701.316406 C 291.207031 701.316406 290.449219 701.46875 289.839844 701.46875 C 289.839844 701.925781 289.535156 702.53125 289.839844 702.683594 Z M 300.480469 718.328125 C 301.238281 718.023438 302.148438 717.570312 302.910156 717.113281 C 303.214844 716.960938 303.519531 716.355469 303.972656 715.746094 C 302.910156 716.203125 302 716.660156 300.933594 717.113281 C 300.933594 717.417969 300.480469 718.328125 300.480469 718.328125 Z M 296.984375 715.59375 C 297.589844 715.441406 298.503906 715.140625 299.261719 714.835938 C 299.414062 714.835938 299.871094 713.925781 300.175781 713.46875 C 299.261719 713.925781 298.199219 714.226562 297.285156 714.683594 C 297.136719 714.988281 296.679688 715.59375 296.984375 715.59375 Z M 276.617188 708 C 277.074219 708 277.835938 707.695312 278.136719 707.695312 C 279.355469 706.632812 279.808594 706.175781 280.265625 705.875 L 277.226562 706.785156 C 277.074219 707.242188 276.464844 708 276.617188 708 Z M 315.21875 735.492188 C 315.066406 735.796875 314.613281 736.40625 314.613281 736.40625 C 315.21875 736.40625 315.828125 736.40625 316.589844 735.949219 C 316.890625 735.796875 317.652344 734.734375 318.261719 734.125 C 317.195312 734.734375 316.285156 735.191406 315.21875 735.492188 Z M 296.832031 706.480469 C 296.679688 707.089844 296.222656 707.542969 296.375 707.695312 C 296.679688 707.847656 297.285156 707.695312 297.894531 707.542969 C 298.046875 707.242188 298.351562 706.785156 298.199219 706.632812 C 298.046875 706.328125 297.4375 706.480469 296.832031 706.480469 Z M 292.421875 708.609375 C 291.816406 709.214844 291.207031 709.824219 290.449219 710.582031 C 290.753906 710.582031 291.207031 710.582031 291.359375 710.277344 C 292.121094 709.671875 292.726562 709.0625 293.488281 708.304688 C 293.03125 708.304688 292.574219 708.304688 292.421875 708.609375 Z M 294.398438 695.695312 C 293.945312 696.304688 293.488281 696.910156 292.878906 697.519531 C 293.335938 697.214844 293.945312 697.0625 294.398438 696.757812 C 295.007812 696.152344 295.617188 695.542969 296.222656 694.9375 C 295.765625 694.9375 295.160156 695.242188 294.398438 695.695312 Z M 269.777344 694.785156 C 270.234375 694.785156 270.691406 694.632812 270.84375 694.632812 C 271.90625 693.417969 272.210938 693.113281 272.667969 692.660156 C 272.058594 692.960938 271.449219 693.113281 270.996094 693.570312 C 270.539062 693.875 270.234375 694.480469 269.777344 694.785156 Z M 317.652344 718.175781 C 316.890625 718.632812 316.285156 718.785156 315.980469 719.089844 C 315.371094 719.695312 314.765625 720.304688 314.308594 720.910156 C 314.765625 720.609375 315.371094 720.457031 315.828125 720.152344 C 316.285156 719.542969 316.890625 718.9375 317.652344 718.175781 Z M 309.140625 721.976562 C 308.683594 722.429688 308.230469 723.191406 307.621094 723.796875 C 308.078125 723.492188 308.683594 723.34375 309.140625 723.039062 C 309.75 722.429688 310.355469 721.824219 310.964844 721.214844 C 310.507812 721.367188 309.902344 721.519531 309.140625 721.976562 Z M 304.429688 720.910156 C 304.734375 720.757812 305.191406 720.910156 305.34375 720.609375 C 306.101562 720 306.710938 719.390625 307.46875 718.632812 C 306.863281 718.785156 306.40625 718.785156 306.253906 718.9375 C 305.644531 719.542969 305.039062 720.304688 304.429688 720.910156 Z M 308.382812 715.441406 C 308.535156 715.140625 308.683594 714.835938 308.835938 714.226562 C 308.382812 714.226562 307.773438 714.378906 307.316406 714.53125 C 307.164062 714.835938 306.863281 715.441406 307.011719 715.441406 C 307.164062 715.59375 307.925781 715.441406 308.382812 715.441406 Z M 294.703125 721.214844 C 295.464844 720.609375 296.222656 720.152344 296.984375 719.542969 C 297.136719 719.390625 297.136719 718.9375 297.285156 718.480469 C 296.375 719.242188 295.617188 719.695312 295.007812 720.304688 C 294.703125 720.609375 294.703125 720.910156 294.703125 721.214844 Z M 287.710938 715.898438 C 288.167969 715.59375 288.777344 715.292969 289.230469 714.988281 C 289.6875 714.53125 289.839844 714.074219 290.296875 713.46875 C 289.839844 713.773438 289.230469 714.074219 287.863281 714.988281 C 287.863281 715.292969 287.710938 715.59375 287.710938 715.898438 Z M 325.859375 744.609375 C 326.316406 744.304688 326.921875 744 327.378906 743.695312 C 327.835938 743.242188 327.988281 742.785156 328.441406 742.328125 C 327.988281 742.632812 327.378906 742.9375 326.011719 743.847656 C 325.859375 743.847656 325.859375 744.304688 325.859375 744.609375 Z M 263.546875 696.910156 C 263.394531 697.0625 263.246094 697.367188 263.246094 697.519531 C 263.546875 697.519531 263.851562 697.367188 264.15625 697.367188 C 264.308594 697.214844 264.613281 696.757812 264.460938 696.757812 C 264.308594 696.757812 263.851562 696.910156 263.546875 696.910156 Z M 273.882812 688.558594 C 273.882812 688.558594 273.425781 688.707031 273.121094 688.859375 C 273.121094 689.164062 272.972656 689.316406 272.972656 689.621094 C 273.273438 689.46875 273.425781 689.46875 273.730469 689.316406 C 273.730469 689.011719 273.882812 688.707031 273.882812 688.558594 Z M 266.585938 700.558594 C 266.738281 700.40625 267.042969 700.253906 267.347656 700.253906 C 267.652344 699.949219 267.957031 699.644531 268.109375 699.191406 C 267.957031 699.339844 267.5 699.339844 267.347656 699.492188 C 267.195312 699.796875 266.890625 700.101562 266.585938 700.558594 Z M 277.683594 690.988281 C 277.53125 691.140625 277.226562 691.292969 276.921875 691.292969 C 276.617188 691.59375 276.464844 692.050781 276.164062 692.355469 C 276.3125 692.203125 276.769531 692.203125 276.921875 692.050781 C 277.074219 691.746094 277.378906 691.441406 277.683594 690.988281 Z M 270.082031 703.140625 C 270.234375 702.988281 270.691406 702.988281 270.84375 702.835938 C 271.148438 702.53125 271.449219 702.074219 271.753906 701.773438 C 271.601562 701.925781 271.300781 702.074219 270.996094 702.074219 C 270.539062 702.378906 270.234375 702.835938 270.082031 703.140625 Z M 273.730469 705.417969 C 274.035156 705.417969 274.339844 705.265625 274.640625 705.265625 C 274.792969 705.113281 274.945312 704.660156 274.945312 704.660156 C 274.792969 704.660156 274.339844 704.660156 274.035156 704.808594 C 273.882812 704.960938 273.730469 705.265625 273.730469 705.417969 Z M 280.265625 702.53125 C 280.417969 702.53125 280.875 702.378906 281.175781 702.378906 C 281.328125 702.226562 281.632812 701.773438 281.480469 701.773438 C 281.328125 701.773438 280.875 701.773438 280.570312 701.925781 C 280.417969 702.226562 280.113281 702.53125 280.265625 702.53125 Z M 280.722656 710.582031 C 280.875 710.582031 281.328125 710.582031 281.632812 710.429688 C 281.785156 710.277344 281.9375 709.976562 281.9375 709.824219 C 281.632812 709.824219 281.328125 709.976562 281.027344 709.976562 C 280.875 710.277344 280.570312 710.582031 280.722656 710.582031 Z M 284.367188 712.558594 C 284.21875 712.707031 284.066406 713.011719 284.066406 713.164062 C 284.367188 713.164062 284.671875 713.011719 284.976562 713.011719 C 285.128906 712.859375 285.433594 712.40625 285.28125 712.40625 C 285.128906 712.40625 284.671875 712.558594 284.367188 712.558594 Z M 293.792969 705.265625 C 293.792969 705.265625 294.246094 705.113281 294.550781 704.960938 C 294.550781 704.808594 294.703125 704.507812 294.703125 704.203125 C 294.398438 704.355469 294.09375 704.507812 293.945312 704.507812 C 293.792969 704.808594 293.792969 705.113281 293.792969 705.265625 Z M 308.078125 706.632812 C 308.078125 706.632812 307.621094 706.785156 307.316406 706.9375 C 307.316406 707.242188 307.164062 707.390625 307.164062 707.695312 C 307.46875 707.542969 307.621094 707.542969 307.925781 707.390625 C 307.925781 707.089844 308.078125 706.785156 308.078125 706.632812 Z M 311.269531 708.609375 C 311.117188 708.757812 310.660156 708.757812 310.507812 708.910156 C 310.203125 709.214844 309.902344 709.671875 309.597656 709.976562 C 309.75 709.824219 310.203125 709.824219 310.355469 709.671875 C 310.8125 709.367188 310.964844 709.0625 311.269531 708.609375 Z M 301.695312 725.621094 C 301.542969 725.773438 301.390625 726.074219 301.390625 726.226562 C 301.695312 726.226562 302 726.074219 302.300781 726.074219 C 302.453125 725.925781 302.757812 725.621094 302.605469 725.46875 C 302.453125 725.46875 302 725.621094 301.695312 725.621094 Z M 310.8125 718.480469 C 311.269531 718.175781 311.574219 718.023438 312.027344 717.722656 C 312.179688 717.570312 312.332031 717.265625 312.332031 717.113281 C 311.875 717.417969 311.421875 717.570312 311.117188 717.875 C 310.964844 717.875 310.8125 718.175781 310.8125 718.480469 Z M 311.117188 726.378906 C 311.269531 726.226562 311.726562 726.226562 311.875 726.074219 C 312.179688 725.773438 312.484375 725.316406 312.789062 725.011719 C 312.636719 725.164062 312.332031 725.316406 312.027344 725.316406 C 311.726562 725.621094 311.421875 726.074219 311.117188 726.378906 Z M 321.753906 717.875 C 321.90625 717.722656 321.90625 717.417969 322.058594 717.265625 C 321.753906 717.265625 321.453125 717.417969 321.148438 717.417969 C 320.996094 717.570312 320.691406 718.023438 320.84375 718.023438 C 321.148438 718.023438 321.453125 717.875 321.753906 717.875 Z M 318.714844 723.191406 C 318.867188 723.039062 319.019531 722.734375 319.019531 722.582031 C 318.714844 722.582031 318.410156 722.734375 318.109375 722.734375 C 317.957031 722.886719 317.652344 723.339844 317.804688 723.339844 C 318.109375 723.339844 318.410156 723.191406 318.714844 723.191406 Z M 318.714844 723.191406 " fill-opacity="1" fill-rule="nonzero"/></svg>